#N canvas 4 0 1366 677 12;
#N canvas 1202 277 450 276 kick 0;
#X text 311 62 Kick;
#X obj 187 118 inlet;
#X obj 266 119 inlet;
#X obj 188 157 bng 19 250 50 0 empty empty empty 0 -10 0 12 #fcfcfc #000000 #000000;
#X obj 285 204 f;
#X msg 154 203 150 \, 50 \, 70 \, 0;
#X obj 189 264 vline~;
#X obj 188 300 osc~;
#X obj 194 344 *~;
#X obj 193 388 outlet~;
#X obj 266 321 vline~;
#X msg 268 275 \$1 1 0 \, 0 100 1;
#X connect 1 0 3 0;
#X connect 2 0 4 1;
#X connect 3 0 4 0;
#X connect 3 0 5 0;
#X connect 4 0 11 0;
#X connect 5 0 6 0;
#X connect 6 0 7 0;
#X connect 7 0 8 0;
#X connect 8 0 9 0;
#X connect 10 0 8 1;
#X connect 11 0 10 0;
#X restore 2239 86 pd kick;
#N canvas 96 96 450 276 snare 0;
#X obj 124 63 noise~;
#X obj 125 101 lop~ 3000;
#X obj 128 137 hip~ 1000;
#X obj 220 174 osc~ 180;
#X obj 222 212 *~ 0.5;
#X obj 226 257 *~;
#X obj 227 301 outlet~;
#X obj 326 233 *~;
#X obj 321 200 vline~;
#X msg 323 170 \$1 1 0 \, 0 150 1;
#X obj 322 138 f;
#X obj 303 99 inlet;
#X obj 377 95 inlet;
#X connect 0 0 1 0;
#X connect 1 0 2 0;
#X connect 2 0 5 0;
#X connect 4 0 5 0;
#X connect 5 0 6 0;
#X connect 7 0 5 1;
#X connect 8 0 7 0;
#X connect 8 0 7 1;
#X connect 9 0 8 0;
#X connect 10 0 9 0;
#X connect 11 0 10 0;
#X connect 12 0 10 1;
#X restore 2237 142 pd snare;
#N canvas 192 192 450 276 hats 0;
#X obj 236 49 inlet;
#X obj 318 51 inlet;
#X obj 237 83 bng 19 250 50 0 empty empty empty 0 -10 0 12 #fcfcfc #000000 #000000;
#X obj 260 113 f;
#X obj 261 147 t f b;
#X obj 296 188 random 10;
#X obj 296 228 / 20;
#X obj 298 273 + 0.7;
#X obj 267 318 *;
#X obj 63 325 noise~;
#X obj 57 358 hip~ 20000;
#X obj 56 386 hip~ 10000;
#X obj 90 427 *~;
#X msg 165 353 \$1 \, 0 40 1;
#X obj 164 386 vline~;
#X obj 89 466 outlet~;
#X connect 0 0 2 0;
#X connect 1 0 3 1;
#X connect 2 0 3 0;
#X connect 3 0 4 0;
#X connect 4 0 8 0;
#X connect 4 1 5 0;
#X connect 5 0 6 0;
#X connect 6 0 7 0;
#X connect 7 0 8 1;
#X connect 8 0 13 0;
#X connect 9 0 10 0;
#X connect 10 0 11 0;
#X connect 11 0 12 0;
#X connect 12 0 15 0;
#X connect 13 0 14 0;
#X connect 14 0 12 1;
#X restore 2238 114 pd hats;
#N canvas -6 117 1366 677 drum 0;
#N canvas 0 50 450 250 (subpatch) 0;
#X array \$0-steps 16 float 3;
#A 0 0 2 3 4 5 6 0 1 2 3 4 5 6 0 1 2;
#X coords 0 6 16 0 200 140 1 0 0;
#X restore 404 471 graph;
#X obj 393 725 array set \$0-steps;
#N canvas 1023 136 750 655 counter 0;
#X obj 228 92 inlet;
#X obj 322 93 inlet;
#X obj 228 130 tgl 19 0 empty empty empty 0 -10 0 12 #fcfcfc #000000 #000000 0 1;
#X floatatom 322 131 5 0 0 0 - - - 0;
#X text 365 128 BPM;
#X msg 322 162 tempo \$1 permin;
#X obj 228 162 t f b;
#X obj 229 202 metro 0.25 120 permin;
#X msg 261 236;
#X text 301 238 Reset;
#X obj 233 273 f;
#X obj 286 275 + 1;
#X obj 233 322 % 16;
#X obj 232 368 outlet;
#X connect 0 0 2 0;
#X connect 1 0 3 0;
#X connect 2 0 6 0;
#X connect 3 0 5 0;
#X connect 5 0 7 0;
#X connect 6 0 7 0;
#X connect 6 1 8 0;
#X connect 7 0 10 0;
#X connect 8 0 10 1;
#X connect 10 0 11 0;
#X connect 10 0 12 0;
#X connect 11 0 10 1;
#X connect 12 0 13 0;
#X restore 103 504 pd counter;
#X obj 103 465 tgl 19 0 empty empty empty 0 -10 0 12 #fcfcfc #000000 #000000 0 1;
#X floatatom 173 458 5 0 0 0 - - - 0;
#X obj 103 541 hradio 15 1 0 16 empty empty empty 0 -10 0 12 #ffffff #000000 #000000 0;
#X obj 103 594 array get \$0-steps;
#X msg 162 565 1;
#X floatatom 105 631 5 0 0 0 - - - 0;
#X obj 106 677 + 0.5;
#X obj 106 722 int;
#X floatatom 104 758 5 0 0 0 - - - 0;
#X obj 106 796 select 0 1 2 3 4 5 6;
#N canvas -7 164 705 729 kick 0;
#X text 311 62 Kick;
#X obj 187 118 inlet;
#X obj 266 119 inlet;
#X obj 188 157 bng 19 250 50 0 empty empty empty 0 -10 0 12 #fcfcfc #000000 #000000;
#X obj 285 204 f;
#X msg 154 203 150 \, 50 \, 70 \, 0;
#X obj 189 264 vline~;
#X obj 188 300 osc~;
#X obj 194 344 *~;
#X obj 193 388 outlet~;
#X obj 266 321 vline~;
#X msg 268 275 \$1 1 0 \, 0 100 1;
#X connect 1 0 3 0;
#X connect 2 0 4 1;
#X connect 3 0 4 0;
#X connect 3 0 5 0;
#X connect 4 0 11 0;
#X connect 5 0 6 0;
#X connect 6 0 7 0;
#X connect 7 0 8 0;
#X connect 8 0 9 0;
#X connect 10 0 8 1;
#X connect 11 0 10 0;
#X restore 34 932 pd kick;
#N canvas 1097 177 630 660 snare 0;
#X obj 124 63 noise~;
#X obj 125 101 lop~ 3000;
#X obj 128 137 hip~ 1000;
#X obj 220 174 osc~ 180;
#X obj 222 212 *~ 0.5;
#X obj 226 257 *~;
#X obj 227 301 outlet~;
#X obj 326 233 *~;
#X obj 321 200 vline~;
#X msg 323 170 \$1 1 0 \, 0 150 1;
#X obj 322 138 f;
#X obj 303 99 inlet;
#X obj 377 95 inlet;
#X connect 0 0 1 0;
#X connect 1 0 2 0;
#X connect 2 0 5 0;
#X connect 4 0 5 0;
#X connect 5 0 6 0;
#X connect 7 0 5 1;
#X connect 8 0 7 0;
#X connect 8 0 7 1;
#X connect 9 0 8 0;
#X connect 10 0 9 0;
#X connect 11 0 10 0;
#X connect 12 0 10 1;
#X restore 152 880 pd snare;
#N canvas 1081 169 633 581 hats 0;
#X obj 236 49 inlet;
#X obj 318 51 inlet;
#X obj 237 83 bng 19 250 50 0 empty empty empty 0 -10 0 12 #fcfcfc #000000 #000000;
#X obj 260 113 f;
#X obj 261 147 t f b;
#X obj 296 188 random 10;
#X obj 296 228 / 20;
#X obj 298 273 + 0.7;
#X obj 267 318 *;
#X obj 63 325 noise~;
#X obj 57 358 hip~ 20000;
#X obj 56 386 hip~ 10000;
#X obj 90 427 *~;
#X msg 165 353 \$1 \, 0 40 1;
#X obj 164 386 vline~;
#X obj 89 466 outlet~;
#X connect 0 0 2 0;
#X connect 1 0 3 1;
#X connect 2 0 3 0;
#X connect 3 0 4 0;
#X connect 4 0 8 0;
#X connect 4 1 5 0;
#X connect 5 0 6 0;
#X connect 6 0 7 0;
#X connect 7 0 8 1;
#X connect 8 0 13 0;
#X connect 9 0 10 0;
#X connect 10 0 11 0;
#X connect 11 0 12 0;
#X connect 12 0 15 0;
#X connect 13 0 14 0;
#X connect 14 0 12 1;
#X restore 300 857 pd hats;
#X floatatom 102 923 5 0 1 0 - - - 0;
#X floatatom 220 852 5 0 1 0 - - - 0;
#X floatatom 350 817 5 0 1 0 - - - 0;
#X obj 151 991 +~;
#X obj 160 425 inlet;
#X obj 220 938;
#X obj 79 416 inlet;
#X obj 106 889 inlet;
#X obj 265 798 inlet;
#X obj 358 773 inlet;
#X obj 147 1052 outlet~;
#X msg 390 693 0 2 3 4 5 6 0 1 2 3 4 5 6 0 1 2;
#X connect 2 0 5 0;
#X connect 3 0 2 0;
#X connect 3 0 27 0;
#X connect 4 0 2 1;
#X connect 5 0 6 0;
#X connect 6 0 8 0;
#X connect 7 0 6 1;
#X connect 8 0 9 0;
#X connect 9 0 10 0;
#X connect 10 0 11 0;
#X connect 11 0 12 0;
#X connect 12 0 13 0;
#X connect 12 1 14 0;
#X connect 12 2 15 0;
#X connect 12 3 13 0;
#X connect 12 3 14 0;
#X connect 12 4 13 0;
#X connect 12 4 15 0;
#X connect 12 5 14 0;
#X connect 12 5 15 0;
#X connect 12 6 13 0;
#X connect 12 6 14 0;
#X connect 12 6 15 0;
#X connect 13 0 19 0;
#X connect 14 0 19 0;
#X connect 15 0 19 0;
#X connect 16 0 13 1;
#X connect 17 0 14 1;
#X connect 18 0 15 1;
#X connect 19 0 26 0;
#X connect 20 0 4 0;
#X connect 22 0 3 0;
#X connect 23 0 16 0;
#X connect 24 0 17 0;
#X connect 25 0 18 0;
#X connect 27 0 1 0;
#X coords 0 1354 2 1352 0 0 0;
#X restore 664 342 pd drum;
#X obj 652 424 dac~;
#X obj 574 249 tgl 19 0 empty empty empty 0 -10 0 12 #fcfcfc #000000 #000000 0 1;
#X floatatom 661 248 5 0 0 0 - - - 0;
#X floatatom 710 249 5 0 1 0 - - - 0;
#X floatatom 614 248 5 0 1 0 - - - 0;
#X floatatom 756 249 5 0 1 0 - - - 0;
#X text 712 217 snare;
#X text 613 220 Kick;
#X text 770 217 hats;
#X text 664 219 BPM;
#X obj 649 720 dac~;
#X obj 571 545 tgl 19 0 empty empty empty 0 -10 0 12 #fcfcfc #000000 #000000 0 1;
#X floatatom 658 544 5 0 0 0 - - - 0;
#X floatatom 707 545 5 0 1 0 - - - 0;
#X floatatom 611 544 5 0 1 0 - - - 0;
#X floatatom 753 545 5 0 1 0 - - - 0;
#X text 709 513 snare;
#X text 610 516 Kick;
#X text 767 513 hats;
#X text 661 515 BPM;
#X obj 640 967 dac~;
#X obj 562 792 tgl 19 0 empty empty empty 0 -10 0 12 #fcfcfc #000000 #000000 0 1;
#X floatatom 649 791 5 0 0 0 - - - 0;
#X floatatom 698 792 5 0 1 0 - - - 0;
#X floatatom 602 791 5 0 1 0 - - - 0;
#X floatatom 744 792 5 0 1 0 - - - 0;
#X text 700 760 snare;
#X text 601 763 Kick;
#X text 758 760 hats;
#X text 652 762 BPM;
#X obj 1204 428 dac~;
#X obj 1127 249 tgl 19 0 empty empty empty 0 -10 0 12 #fcfcfc #000000 #000000 0 1;
#X floatatom 1213 252 5 0 0 0 - - - 0;
#X floatatom 1262 253 5 0 1 0 - - - 0;
#X floatatom 1166 252 5 0 1 0 - - - 0;
#X floatatom 1308 253 5 0 1 0 - - - 0;
#X text 1264 221 snare;
#X text 1165 224 Kick;
#X text 1322 221 hats;
#X text 1216 223 BPM;
#X obj 1201 724 dac~;
#X obj 1123 549 tgl 19 0 empty empty empty 0 -10 0 12 #fcfcfc #000000 #000000 0 1;
#X floatatom 1210 548 5 0 0 0 - - - 0;
#X floatatom 1259 549 5 0 1 0 - - - 0;
#X floatatom 1163 548 5 0 1 0 - - - 0;
#X floatatom 1305 549 5 0 1 0 - - - 0;
#X text 1261 517 snare;
#X text 1162 520 Kick;
#X text 1319 517 hats;
#X text 1213 519 BPM;
#X obj 1192 971 dac~;
#X obj 1114 796 tgl 19 0 empty empty empty 0 -10 0 12 #fcfcfc #000000 #000000 0 1;
#X floatatom 1201 795 5 0 0 0 - - - 0;
#X floatatom 1250 796 5 0 1 0 - - - 0;
#X floatatom 1154 795 5 0 1 0 - - - 0;
#X floatatom 1296 796 5 0 1 0 - - - 0;
#X text 1252 764 snare;
#X text 1153 767 Kick;
#X text 1310 764 hats;
#X text 1204 766 BPM;
#X obj 1789 434 dac~;
#X obj 1711 259 tgl 19 0 empty empty empty 0 -10 0 12 #fcfcfc #000000 #000000 0 1;
#X floatatom 1798 258 5 0 0 0 - - - 0;
#X floatatom 1847 259 5 0 1 0 - - - 0;
#X floatatom 1751 258 5 0 1 0 - - - 0;
#X floatatom 1893 259 5 0 1 0 - - - 0;
#X text 1849 227 snare;
#X text 1750 230 Kick;
#X text 1907 227 hats;
#X text 1801 229 BPM;
#X obj 1786 730 dac~;
#X obj 1708 555 tgl 19 0 empty empty empty 0 -10 0 12 #fcfcfc #000000 #000000 0 1;
#X floatatom 1795 554 5 0 0 0 - - - 0;
#X floatatom 1844 555 5 0 1 0 - - - 0;
#X floatatom 1748 554 5 0 1 0 - - - 0;
#X floatatom 1890 555 5 0 1 0 - - - 0;
#X text 1846 523 snare;
#X text 1747 526 Kick;
#X text 1904 523 hats;
#X text 1798 525 BPM;
#X msg 100 148 listen 10000;
#X obj 100 187 netreceive -u -b;
#X obj 100 226 oscparse;
#X obj 99 270 list trim;
#X obj 97 316 route oscControl;
#X obj 120 379 symbol;
#X obj 102 448 s;
#X obj 1106 45 r slider1;
#X obj 1107 87 route slider1;
#X obj 1263 94 route slider2;
#X obj 1262 49 r slider2;
#X obj 1403 48 r slider3;
#X obj 1406 92 route slider3;
#X obj 542 148 r gridToggle1;
#X obj 552 177 route gridToggle1;
#X obj 510 456 r gridToggle2;
#X obj 528 485 route gridToggle2;
#X obj 488 703 r gridToggle3;
#X obj 510 730 route gridToggle3;
#X obj 1052 181 r gridToggle4;
#X obj 1053 206 route gridToggle4;
#X obj 1070 466 r gridToggle5;
#X obj 1072 493 route gridToggle5;
#X obj 1041 695 r gridToggle6;
#X obj 1043 731 route gridToggle6;
#X obj 1618 151 r gridToggle7;
#X obj 1625 189 route gridToggle7;
#X obj 1632 473 r gridToggle8;
#X obj 1637 507 route gridToggle8;
#X obj 1529 47 r slider4;
#X obj 1532 90 route slider4;
#X obj 1578 127 *;
#X msg 1708 82 100;
#X obj 109 645 r button1;
#X obj 222 641 r button2;
#X obj 109 702 route button1;
#X obj 219 704 route button2;
#X obj 388 284 noteout;
#N canvas -8 181 1366 677 piano 0;
#X obj -539 997 makenote;
#X msg -425 973 128;
#X obj -446 1046 outlet;
#X obj -538 1074 outlet;
#X obj -462 1074 print mk1;
#X floatatom -645 1032 5 0 0 0 - - - 0;
#X obj -649 1074 pgmout;
#X obj -362 -24 r gridToggle17;
#X obj -439 15 route gridToggle17;
#X floatatom -226 450 5 0 0 0 - - - 0;
#X obj -435 167 r gridToggle18;
#X obj -434 224 route gridToggle18;
#X obj -437 58 bng 19 250 50 0 empty empty empty 0 -10 0 12 #fcfcfc #000000 #000000;
#X obj -433 261 bng 19 250 50 0 empty empty empty 0 -10 0 12 #fcfcfc #000000 #000000;
#X obj -240 382 bng 19 250 50 0 empty empty empty 0 -10 0 12 #fcfcfc #000000 #000000;
#X obj -432 428 bng 19 250 50 0 empty empty empty 0 -10 0 12 #fcfcfc #000000 #000000;
#X obj -430 632 bng 19 250 50 0 empty empty empty 0 -10 0 12 #fcfcfc #000000 #000000;
#X obj -432 355 r gridToggle19;
#X obj -431 390 route gridToggle19;
#X obj -433 555 r gridToggle20;
#X obj -432 592 route gridToggle20;
#X floatatom 29 406 5 0 0 0 - - - 0;
#X obj 28 361 bng 19 250 50 0 empty empty empty 0 -10 0 12 #fcfcfc #000000 #000000;
#X obj -50 455 bng 19 250 50 0 empty empty empty 0 -10 0 12 #fcfcfc #000000 #000000;
#X obj -50 633 bng 19 250 50 0 empty empty empty 0 -10 0 12 #fcfcfc #000000 #000000;
#X obj -57 60 bng 19 250 50 0 empty empty empty 0 -10 0 12 #fcfcfc #000000 #000000;
#X obj -258 185 r gridButton1;
#X obj -258 230 route gridButton1;
#X obj 28 283 r gridButton2;
#X obj 27 318 route gridButton2;
#X msg -437 95 set 72;
#X msg -432 294 set 84;
#X msg -434 468 set 96;
#X msg -432 669 set 108;
#X msg -57 100 set 74;
#X msg -52 306 set 86;
#X obj -53 269 bng 19 250 50 0 empty empty empty 0 -10 0 12 #fcfcfc #000000 #000000;
#X msg -48 508 set 98;
#X msg -52 670 set 110;
#X floatatom 314 413 5 0 0 0 - - - 0;
#X obj 317 381 bng 19 250 50 0 empty empty empty 0 -10 0 12 #fcfcfc #000000 #000000;
#X obj 243 439 bng 19 250 50 0 empty empty empty 0 -10 0 12 #fcfcfc #000000 #000000;
#X obj 239 600 bng 19 250 50 0 empty empty empty 0 -10 0 12 #fcfcfc #000000 #000000;
#X obj 239 140 bng 19 250 50 0 empty empty empty 0 -10 0 12 #fcfcfc #000000 #000000;
#X msg 240 169 set 76;
#X obj 238 348 bng 19 250 50 0 empty empty empty 0 -10 0 12 #fcfcfc #000000 #000000;
#X msg 240 388 set 88;
#X msg 241 476 set 100;
#X msg 241 640 set 112;
#X obj 321 308 r gridButton3;
#X obj 320 344 route gridButton3;
#X floatatom 610 446 5 0 0 0 - - - 0;
#X obj 613 412 bng 19 250 50 0 empty empty empty 0 -10 0 12 #fcfcfc #000000 #000000;
#X obj 522 462 bng 19 250 50 0 empty empty empty 0 -10 0 12 #fcfcfc #000000 #000000;
#X obj 518 623 bng 19 250 50 0 empty empty empty 0 -10 0 12 #fcfcfc #000000 #000000;
#X obj 518 163 bng 19 250 50 0 empty empty empty 0 -10 0 12 #fcfcfc #000000 #000000;
#X obj 517 371 bng 19 250 50 0 empty empty empty 0 -10 0 12 #fcfcfc #000000 #000000;
#X msg 519 192 set 77;
#X msg 519 411 set 89;
#X msg 520 499 set 101;
#X msg 520 663 set 113;
#X obj 622 333 r gridButton4;
#X obj 620 378 route gridButton4;
#X floatatom 899 424 5 0 0 0 - - - 0;
#X obj 899 391 bng 19 250 50 0 empty empty empty 0 -10 0 12 #fcfcfc #000000 #000000;
#X obj 798 452 bng 19 250 50 0 empty empty empty 0 -10 0 12 #fcfcfc #000000 #000000;
#X obj 803 546 bng 19 250 50 0 empty empty empty 0 -10 0 12 #fcfcfc #000000 #000000;
#X obj 796 276 bng 19 250 50 0 empty empty empty 0 -10 0 12 #fcfcfc #000000 #000000;
#X obj 793 361 bng 19 250 50 0 empty empty empty 0 -10 0 12 #fcfcfc #000000 #000000;
#X msg 796 304 set 79;
#X msg 795 401 set 91;
#X msg 796 489 set 103;
#X msg 802 574 set 115;
#X obj 894 311 r gridButton5;
#X obj 897 345 route gridButton5;
#X floatatom -68 947 5 0 0 0 - - - 0;
#X obj -68 914 bng 19 250 50 0 empty empty empty 0 -10 0 12 #fcfcfc #000000 #000000;
#X obj -169 975 bng 19 250 50 0 empty empty empty 0 -10 0 12 #fcfcfc #000000 #000000;
#X obj -164 1069 bng 19 250 50 0 empty empty empty 0 -10 0 12 #fcfcfc #000000 #000000;
#X obj -171 799 bng 19 250 50 0 empty empty empty 0 -10 0 12 #fcfcfc #000000 #000000;
#X obj -174 884 bng 19 250 50 0 empty empty empty 0 -10 0 12 #fcfcfc #000000 #000000;
#X msg -171 827 set 81;
#X msg -172 924 set 93;
#X msg -171 1012 set 105;
#X msg -165 1097 set 117;
#X floatatom 674 953 5 0 0 0 - - - 0;
#X obj 674 920 bng 19 250 50 0 empty empty empty 0 -10 0 12 #fcfcfc #000000 #000000;
#X obj 573 981 bng 19 250 50 0 empty empty empty 0 -10 0 12 #fcfcfc #000000 #000000;
#X obj 578 1075 bng 19 250 50 0 empty empty empty 0 -10 0 12 #fcfcfc #000000 #000000;
#X obj 571 805 bng 19 250 50 0 empty empty empty 0 -10 0 12 #fcfcfc #000000 #000000;
#X obj 568 890 bng 19 250 50 0 empty empty empty 0 -10 0 12 #fcfcfc #000000 #000000;
#X msg 571 833 set 83;
#X msg 570 930 set 95;
#X msg 571 1018 set 107;
#X msg 577 1103 set 119;
#X obj -73 834 r gridButton6;
#X obj -70 868 route gridButton6;
#X obj 669 840 r gridButton7;
#X obj 672 874 route gridButton7;
#X floatatom -1742 466 5 0 0 0 - - - 0;
#X obj -1964 29 bng 19 250 50 0 empty empty empty 0 -10 0 12 #fcfcfc #000000 #000000;
#X obj -1960 232 bng 19 250 50 0 empty empty empty 0 -10 0 12 #fcfcfc #000000 #000000;
#X obj -1766 333 bng 19 250 50 0 empty empty empty 0 -10 0 12 #fcfcfc #000000 #000000;
#X obj -1959 399 bng 19 250 50 0 empty empty empty 0 -10 0 12 #fcfcfc #000000 #000000;
#X obj -1957 603 bng 19 250 50 0 empty empty empty 0 -10 0 12 #fcfcfc #000000 #000000;
#X floatatom -1498 377 5 0 0 0 - - - 0;
#X obj -1499 332 bng 19 250 50 0 empty empty empty 0 -10 0 12 #fcfcfc #000000 #000000;
#X obj -1577 426 bng 19 250 50 0 empty empty empty 0 -10 0 12 #fcfcfc #000000 #000000;
#X obj -1577 604 bng 19 250 50 0 empty empty empty 0 -10 0 12 #fcfcfc #000000 #000000;
#X obj -1584 31 bng 19 250 50 0 empty empty empty 0 -10 0 12 #fcfcfc #000000 #000000;
#X obj -1580 240 bng 19 250 50 0 empty empty empty 0 -10 0 12 #fcfcfc #000000 #000000;
#X floatatom -1213 384 5 0 0 0 - - - 0;
#X obj -1210 352 bng 19 250 50 0 empty empty empty 0 -10 0 12 #fcfcfc #000000 #000000;
#X obj -1284 410 bng 19 250 50 0 empty empty empty 0 -10 0 12 #fcfcfc #000000 #000000;
#X obj -1288 571 bng 19 250 50 0 empty empty empty 0 -10 0 12 #fcfcfc #000000 #000000;
#X obj -1288 111 bng 19 250 50 0 empty empty empty 0 -10 0 12 #fcfcfc #000000 #000000;
#X obj -1289 319 bng 19 250 50 0 empty empty empty 0 -10 0 12 #fcfcfc #000000 #000000;
#X floatatom -917 417 5 0 0 0 - - - 0;
#X obj -914 383 bng 19 250 50 0 empty empty empty 0 -10 0 12 #fcfcfc #000000 #000000;
#X obj -1005 433 bng 19 250 50 0 empty empty empty 0 -10 0 12 #fcfcfc #000000 #000000;
#X obj -1009 594 bng 19 250 50 0 empty empty empty 0 -10 0 12 #fcfcfc #000000 #000000;
#X obj -1009 134 bng 19 250 50 0 empty empty empty 0 -10 0 12 #fcfcfc #000000 #000000;
#X obj -1010 342 bng 19 250 50 0 empty empty empty 0 -10 0 12 #fcfcfc #000000 #000000;
#X floatatom -628 395 5 0 0 0 - - - 0;
#X obj -628 362 bng 19 250 50 0 empty empty empty 0 -10 0 12 #fcfcfc #000000 #000000;
#X obj -729 423 bng 19 250 50 0 empty empty empty 0 -10 0 12 #fcfcfc #000000 #000000;
#X obj -724 517 bng 19 250 50 0 empty empty empty 0 -10 0 12 #fcfcfc #000000 #000000;
#X obj -731 247 bng 19 250 50 0 empty empty empty 0 -10 0 12 #fcfcfc #000000 #000000;
#X obj -734 332 bng 19 250 50 0 empty empty empty 0 -10 0 12 #fcfcfc #000000 #000000;
#X obj -1889 -53 r gridToggle21;
#X obj -1966 -14 route gridToggle21;
#X obj -1962 138 r gridToggle22;
#X obj -1961 195 route gridToggle22;
#X obj -1959 326 r gridToggle23;
#X obj -1958 361 route gridToggle23;
#X obj -1960 526 r gridToggle24;
#X obj -1959 563 route gridToggle24;
#X obj -1785 156 r gridButton9;
#X obj -1785 201 route gridButton9;
#X obj -1499 254 r gridButton10;
#X obj -1500 289 route gridButton10;
#X obj -1206 279 r gridButton11;
#X obj -1207 315 route gridButton11;
#X obj -905 304 r gridButton12;
#X obj -907 349 route gridButton12;
#X obj -633 282 r gridButton13;
#X obj -630 316 route gridButton13;
#X msg -1964 66 set 24;
#X msg -1959 265 set 36;
#X msg -1961 439 set 48;
#X msg -1959 640 set 60;
#X msg -1584 71 set 26;
#X msg -1579 277 set 38;
#X msg -1575 479 set 50;
#X msg -1579 641 set 62;
#X msg -1287 140 set 28;
#X msg -1008 163 set 29;
#X msg -1287 359 set 40;
#X msg -1008 382 set 41;
#X msg -1286 447 set 52;
#X msg -1007 470 set 53;
#X msg -1286 611 set 64;
#X msg -1007 634 set 65;
#X msg -731 275 set 31;
#X msg -732 372 set 43;
#X msg -731 460 set 55;
#X msg -725 545 set 67;
#X floatatom -1569 905 5 0 0 0 - - - 0;
#X obj -1569 872 bng 19 250 50 0 empty empty empty 0 -10 0 12 #fcfcfc #000000 #000000;
#X obj -1670 933 bng 19 250 50 0 empty empty empty 0 -10 0 12 #fcfcfc #000000 #000000;
#X obj -1665 1027 bng 19 250 50 0 empty empty empty 0 -10 0 12 #fcfcfc #000000 #000000;
#X obj -1672 757 bng 19 250 50 0 empty empty empty 0 -10 0 12 #fcfcfc #000000 #000000;
#X obj -1675 842 bng 19 250 50 0 empty empty empty 0 -10 0 12 #fcfcfc #000000 #000000;
#X msg -1672 785 set 33;
#X msg -1673 882 set 45;
#X msg -1672 970 set 57;
#X msg -1666 1055 set 69;
#X floatatom -1214 882 5 0 0 0 - - - 0;
#X obj -1214 849 bng 19 250 50 0 empty empty empty 0 -10 0 12 #fcfcfc #000000 #000000;
#X obj -1315 910 bng 19 250 50 0 empty empty empty 0 -10 0 12 #fcfcfc #000000 #000000;
#X obj -1310 1004 bng 19 250 50 0 empty empty empty 0 -10 0 12 #fcfcfc #000000 #000000;
#X obj -1317 734 bng 19 250 50 0 empty empty empty 0 -10 0 12 #fcfcfc #000000 #000000;
#X obj -1320 819 bng 19 250 50 0 empty empty empty 0 -10 0 12 #fcfcfc #000000 #000000;
#X obj -1574 792 r gridButton14;
#X obj -1571 826 route gridButton14;
#X obj -1219 769 r gridButton15;
#X obj -1216 803 route gridButton15;
#X msg -1317 762 set 35;
#X msg -1318 859 set 47;
#X msg -1317 947 set 59;
#X msg -1311 1032 set 71;
#X msg -787 1239 10;
#X msg -785 1004 15;
#X msg -788 1047 9;
#X msg -789 1188 54;
#X msg -790 1139 34;
#X msg -789 1091 99;
#X obj -979 985 r gridButton17;
#X obj -976 1019 route gridButton17;
#X obj -982 1135 r gridButton18;
#X obj -979 1169 route gridButton18;
#X obj -981 1055 r gridButton19;
#X obj -981 1094 route gridButton19;
#X obj -972 1209 r gridButton20;
#X obj -969 1243 route gridButton20;
#X obj -970 1279 r gridButton21;
#X obj -967 1313 route gridButton21;
#X obj -971 1356 r gridButton22;
#X obj -968 1390 route gridButton22;
#X obj -969 1426 r gridButton23;
#X obj -966 1460 route gridButton23;
#X obj -733 1377 r gridButton24;
#X obj -730 1411 route gridButton24;
#X obj -744 1289 r gridButton8;
#X obj -741 1323 route gridButton8;
#X msg -783 1277 0;
#X msg -783 1321 100;
#X obj -579 1376 r gridButton16;
#X obj -576 1410 route gridButton16;
#X msg -779 1394 48;
#X msg -781 1352 81;
#X obj -212 1150 r slider2Dy;
#X obj -216 1187 route slider2Dy;
#X obj -266 1119 * 1000;
#X floatatom -329 1047 5 0 0 0 - - - 0;
#X connect 0 0 3 0;
#X connect 0 0 4 0;
#X connect 0 1 2 0;
#X connect 1 0 0 1;
#X connect 5 0 6 0;
#X connect 7 0 8 0;
#X connect 8 0 12 0;
#X connect 8 0 25 0;
#X connect 8 0 43 0;
#X connect 8 0 55 0;
#X connect 8 0 67 0;
#X connect 8 0 79 0;
#X connect 8 0 89 0;
#X connect 9 0 0 0;
#X connect 10 0 11 0;
#X connect 11 0 13 0;
#X connect 11 0 36 0;
#X connect 11 0 45 0;
#X connect 11 0 56 0;
#X connect 11 0 68 0;
#X connect 11 0 80 0;
#X connect 11 0 90 0;
#X connect 12 0 30 0;
#X connect 13 0 31 0;
#X connect 14 0 9 0;
#X connect 15 0 32 0;
#X connect 16 0 33 0;
#X connect 17 0 18 0;
#X connect 18 0 15 0;
#X connect 18 0 23 0;
#X connect 18 0 41 0;
#X connect 18 0 53 0;
#X connect 18 0 65 0;
#X connect 18 0 77 0;
#X connect 18 0 87 0;
#X connect 19 0 20 0;
#X connect 20 0 16 0;
#X connect 20 0 24 0;
#X connect 20 0 42 0;
#X connect 20 0 54 0;
#X connect 20 0 66 0;
#X connect 20 0 78 0;
#X connect 20 0 88 0;
#X connect 21 0 0 0;
#X connect 22 0 21 0;
#X connect 23 0 37 0;
#X connect 24 0 38 0;
#X connect 25 0 34 0;
#X connect 26 0 27 0;
#X connect 27 0 14 0;
#X connect 28 0 29 0;
#X connect 29 0 22 0;
#X connect 30 0 9 0;
#X connect 31 0 9 0;
#X connect 32 0 9 0;
#X connect 33 0 9 0;
#X connect 34 0 21 0;
#X connect 35 0 21 0;
#X connect 36 0 35 0;
#X connect 37 0 21 0;
#X connect 38 0 21 0;
#X connect 39 0 0 0;
#X connect 40 0 39 0;
#X connect 41 0 47 0;
#X connect 42 0 48 0;
#X connect 43 0 44 0;
#X connect 44 0 39 0;
#X connect 45 0 46 0;
#X connect 46 0 39 0;
#X connect 47 0 39 0;
#X connect 48 0 39 0;
#X connect 49 0 50 0;
#X connect 50 0 40 0;
#X connect 51 0 0 0;
#X connect 52 0 51 0;
#X connect 53 0 59 0;
#X connect 54 0 60 0;
#X connect 55 0 57 0;
#X connect 56 0 58 0;
#X connect 57 0 51 0;
#X connect 58 0 51 0;
#X connect 59 0 51 0;
#X connect 60 0 51 0;
#X connect 61 0 62 0;
#X connect 62 0 52 0;
#X connect 63 0 0 0;
#X connect 64 0 63 0;
#X connect 65 0 71 0;
#X connect 66 0 72 0;
#X connect 67 0 69 0;
#X connect 68 0 70 0;
#X connect 69 0 63 0;
#X connect 70 0 63 0;
#X connect 71 0 63 0;
#X connect 72 0 63 0;
#X connect 73 0 74 0;
#X connect 74 0 64 0;
#X connect 75 0 0 0;
#X connect 76 0 75 0;
#X connect 77 0 83 0;
#X connect 78 0 84 0;
#X connect 79 0 81 0;
#X connect 80 0 82 0;
#X connect 81 0 75 0;
#X connect 82 0 75 0;
#X connect 83 0 75 0;
#X connect 84 0 75 0;
#X connect 85 0 0 0;
#X connect 86 0 85 0;
#X connect 87 0 93 0;
#X connect 88 0 94 0;
#X connect 89 0 91 0;
#X connect 90 0 92 0;
#X connect 91 0 85 0;
#X connect 92 0 85 0;
#X connect 93 0 85 0;
#X connect 94 0 85 0;
#X connect 95 0 96 0;
#X connect 96 0 76 0;
#X connect 97 0 98 0;
#X connect 98 0 86 0;
#X connect 99 0 0 0;
#X connect 100 0 147 0;
#X connect 101 0 148 0;
#X connect 102 0 99 0;
#X connect 103 0 149 0;
#X connect 104 0 150 0;
#X connect 105 0 0 0;
#X connect 106 0 105 0;
#X connect 107 0 153 0;
#X connect 108 0 154 0;
#X connect 109 0 151 0;
#X connect 110 0 152 0;
#X connect 111 0 0 0;
#X connect 112 0 111 0;
#X connect 113 0 159 0;
#X connect 114 0 161 0;
#X connect 115 0 155 0;
#X connect 116 0 157 0;
#X connect 117 0 0 0;
#X connect 118 0 117 0;
#X connect 119 0 160 0;
#X connect 120 0 162 0;
#X connect 121 0 156 0;
#X connect 122 0 158 0;
#X connect 123 0 0 0;
#X connect 124 0 123 0;
#X connect 125 0 165 0;
#X connect 126 0 166 0;
#X connect 127 0 163 0;
#X connect 128 0 164 0;
#X connect 129 0 130 0;
#X connect 130 0 100 0;
#X connect 130 0 109 0;
#X connect 130 0 115 0;
#X connect 130 0 121 0;
#X connect 130 0 127 0;
#X connect 130 0 171 0;
#X connect 130 0 181 0;
#X connect 131 0 132 0;
#X connect 132 0 101 0;
#X connect 132 0 110 0;
#X connect 132 0 116 0;
#X connect 132 0 122 0;
#X connect 132 0 128 0;
#X connect 132 0 172 0;
#X connect 132 0 182 0;
#X connect 133 0 134 0;
#X connect 134 0 103 0;
#X connect 134 0 107 0;
#X connect 134 0 113 0;
#X connect 134 0 119 0;
#X connect 134 0 125 0;
#X connect 134 0 169 0;
#X connect 134 0 179 0;
#X connect 135 0 136 0;
#X connect 136 0 104 0;
#X connect 136 0 108 0;
#X connect 136 0 114 0;
#X connect 136 0 120 0;
#X connect 136 0 126 0;
#X connect 136 0 170 0;
#X connect 136 0 180 0;
#X connect 137 0 138 0;
#X connect 138 0 102 0;
#X connect 139 0 140 0;
#X connect 140 0 106 0;
#X connect 141 0 142 0;
#X connect 142 0 112 0;
#X connect 143 0 144 0;
#X connect 144 0 118 0;
#X connect 145 0 146 0;
#X connect 146 0 124 0;
#X connect 147 0 99 0;
#X connect 148 0 99 0;
#X connect 149 0 99 0;
#X connect 150 0 99 0;
#X connect 151 0 105 0;
#X connect 152 0 105 0;
#X connect 153 0 105 0;
#X connect 154 0 105 0;
#X connect 155 0 111 0;
#X connect 156 0 117 0;
#X connect 157 0 111 0;
#X connect 158 0 117 0;
#X connect 159 0 111 0;
#X connect 160 0 117 0;
#X connect 161 0 111 0;
#X connect 162 0 117 0;
#X connect 163 0 123 0;
#X connect 164 0 123 0;
#X connect 165 0 123 0;
#X connect 166 0 123 0;
#X connect 167 0 0 0;
#X connect 168 0 167 0;
#X connect 169 0 175 0;
#X connect 170 0 176 0;
#X connect 171 0 173 0;
#X connect 172 0 174 0;
#X connect 173 0 167 0;
#X connect 174 0 167 0;
#X connect 175 0 167 0;
#X connect 176 0 167 0;
#X connect 177 0 0 0;
#X connect 178 0 177 0;
#X connect 179 0 189 0;
#X connect 180 0 190 0;
#X connect 181 0 187 0;
#X connect 182 0 188 0;
#X connect 183 0 184 0;
#X connect 184 0 168 0;
#X connect 185 0 186 0;
#X connect 186 0 178 0;
#X connect 187 0 177 0;
#X connect 188 0 177 0;
#X connect 189 0 177 0;
#X connect 190 0 177 0;
#X connect 191 0 5 0;
#X connect 192 0 5 0;
#X connect 193 0 5 0;
#X connect 194 0 5 0;
#X connect 195 0 5 0;
#X connect 196 0 5 0;
#X connect 197 0 198 0;
#X connect 198 0 192 0;
#X connect 199 0 200 0;
#X connect 200 0 196 0;
#X connect 201 0 202 0;
#X connect 202 0 193 0;
#X connect 203 0 204 0;
#X connect 204 0 195 0;
#X connect 205 0 206 0;
#X connect 206 0 194 0;
#X connect 207 0 208 0;
#X connect 208 0 191 0;
#X connect 209 0 210 0;
#X connect 210 0 216 0;
#X connect 211 0 212 0;
#X connect 212 0 220 0;
#X connect 213 0 214 0;
#X connect 214 0 215 0;
#X connect 215 0 5 0;
#X connect 216 0 5 0;
#X connect 217 0 218 0;
#X connect 218 0 219 0;
#X connect 219 0 5 0;
#X connect 220 0 5 0;
#X connect 221 0 222 0;
#X connect 222 0 223 0;
#X connect 223 0 224 0;
#X connect 224 0 0 2;
#X restore 385 224 pd piano;
#N canvas 676 0 681 668 drum2 0;
#N canvas 0 50 450 250 (subpatch) 0;
#X array \$0-steps2 16 float 3;
#A 0 4 10 4 10 5 10 2 1 2 1 4 0 5 10 2 1;
#X coords 0 6 16 0 200 140 1 0 0;
#X restore 404 462 graph;
#N canvas 1023 136 750 655 counter 0;
#X obj 228 92 inlet;
#X obj 322 93 inlet;
#X obj 228 130 tgl 19 0 empty empty empty 0 -10 0 12 #fcfcfc #000000 #000000 0 1;
#X floatatom 322 131 5 0 0 0 - - - 0;
#X text 365 128 BPM;
#X msg 322 162 tempo \$1 permin;
#X obj 228 162 t f b;
#X obj 229 202 metro 0.25 120 permin;
#X msg 261 236;
#X text 301 238 Reset;
#X obj 233 273 f;
#X obj 286 275 + 1;
#X obj 233 322 % 16;
#X obj 232 368 outlet;
#X connect 0 0 2 0;
#X connect 1 0 3 0;
#X connect 2 0 6 0;
#X connect 3 0 5 0;
#X connect 5 0 7 0;
#X connect 6 0 7 0;
#X connect 6 1 8 0;
#X connect 7 0 10 0;
#X connect 8 0 10 1;
#X connect 10 0 11 0;
#X connect 10 0 12 0;
#X connect 11 0 10 1;
#X connect 12 0 13 0;
#X restore 103 495 pd counter;
#X obj 103 456 tgl 19 0 empty empty empty 0 -10 0 12 #fcfcfc #000000 #000000 0 1;
#X floatatom 173 449 5 0 0 0 - - - 0;
#X obj 103 532 hradio 15 1 0 16 empty empty empty 0 -10 0 12 #ffffff #000000 #000000 0;
#X msg 162 556 1;
#X floatatom 105 622 5 0 0 0 - - - 0;
#X obj 106 668 + 0.5;
#X obj 106 713 int;
#X floatatom 104 749 5 0 0 0 - - - 0;
#X obj 106 787 select 0 1 2 3 4 5 6;
#N canvas -7 164 705 729 kick 0;
#X text 311 62 Kick;
#X obj 187 118 inlet;
#X obj 266 119 inlet;
#X obj 188 157 bng 19 250 50 0 empty empty empty 0 -10 0 12 #fcfcfc #000000 #000000;
#X obj 285 204 f;
#X msg 154 203 150 \, 50 \, 70 \, 0;
#X obj 189 264 vline~;
#X obj 188 300 osc~;
#X obj 194 344 *~;
#X obj 193 388 outlet~;
#X obj 266 321 vline~;
#X msg 268 275 \$1 1 0 \, 0 100 1;
#X connect 1 0 3 0;
#X connect 2 0 4 1;
#X connect 3 0 4 0;
#X connect 3 0 5 0;
#X connect 4 0 11 0;
#X connect 5 0 6 0;
#X connect 6 0 7 0;
#X connect 7 0 8 0;
#X connect 8 0 9 0;
#X connect 10 0 8 1;
#X connect 11 0 10 0;
#X restore 34 923 pd kick;
#N canvas 1097 177 630 660 snare 0;
#X obj 124 63 noise~;
#X obj 125 101 lop~ 3000;
#X obj 128 137 hip~ 1000;
#X obj 220 174 osc~ 180;
#X obj 222 212 *~ 0.5;
#X obj 226 257 *~;
#X obj 227 301 outlet~;
#X obj 326 233 *~;
#X obj 321 200 vline~;
#X msg 323 170 \$1 1 0 \, 0 150 1;
#X obj 322 138 f;
#X obj 303 99 inlet;
#X obj 377 95 inlet;
#X connect 0 0 1 0;
#X connect 1 0 2 0;
#X connect 2 0 5 0;
#X connect 4 0 5 0;
#X connect 5 0 6 0;
#X connect 7 0 5 1;
#X connect 8 0 7 0;
#X connect 8 0 7 1;
#X connect 9 0 8 0;
#X connect 10 0 9 0;
#X connect 11 0 10 0;
#X connect 12 0 10 1;
#X restore 152 871 pd snare;
#N canvas 1081 169 633 581 hats 0;
#X obj 236 49 inlet;
#X obj 318 51 inlet;
#X obj 237 83 bng 19 250 50 0 empty empty empty 0 -10 0 12 #fcfcfc #000000 #000000;
#X obj 260 113 f;
#X obj 261 147 t f b;
#X obj 296 188 random 10;
#X obj 296 228 / 20;
#X obj 298 273 + 0.7;
#X obj 267 318 *;
#X obj 63 325 noise~;
#X obj 57 358 hip~ 20000;
#X obj 56 386 hip~ 10000;
#X obj 90 427 *~;
#X msg 165 353 \$1 \, 0 40 1;
#X obj 164 386 vline~;
#X obj 89 466 outlet~;
#X connect 0 0 2 0;
#X connect 1 0 3 1;
#X connect 2 0 3 0;
#X connect 3 0 4 0;
#X connect 4 0 8 0;
#X connect 4 1 5 0;
#X connect 5 0 6 0;
#X connect 6 0 7 0;
#X connect 7 0 8 1;
#X connect 8 0 13 0;
#X connect 9 0 10 0;
#X connect 10 0 11 0;
#X connect 11 0 12 0;
#X connect 12 0 15 0;
#X connect 13 0 14 0;
#X connect 14 0 12 1;
#X restore 300 848 pd hats;
#X floatatom 102 914 5 0 1 0 - - - 0;
#X floatatom 220 843 5 0 1 0 - - - 0;
#X floatatom 350 808 5 0 1 0 - - - 0;
#X obj 151 982 +~;
#X obj 160 416 inlet;
#X obj 220 929;
#X obj 79 407 inlet;
#X obj 106 880 inlet;
#X obj 265 789 inlet;
#X obj 358 764 inlet;
#X obj 147 1043 outlet~;
#X obj 393 716 array set \$0-steps2;
#X obj 103 585 array get \$0-steps2;
#X msg 802 542 4 10 4 10 5 10 2 1 2 1 4 0 5 10 2 1;
#X msg 812 552 4 10 4 10 5 10 2 1 2 1 4 0 5 10 2 1;
#X msg 392 679 4 10 4 10 5 10 2 1 2 1 4 0 5 10 2 1;
#X connect 1 0 4 0;
#X connect 2 0 1 0;
#X connect 2 0 29 0;
#X connect 3 0 1 1;
#X connect 4 0 26 0;
#X connect 5 0 26 1;
#X connect 6 0 7 0;
#X connect 7 0 8 0;
#X connect 8 0 9 0;
#X connect 9 0 10 0;
#X connect 10 0 11 0;
#X connect 10 1 12 0;
#X connect 10 2 13 0;
#X connect 10 3 11 0;
#X connect 10 3 12 0;
#X connect 10 4 11 0;
#X connect 10 4 13 0;
#X connect 10 5 12 0;
#X connect 10 5 13 0;
#X connect 10 6 11 0;
#X connect 10 6 12 0;
#X connect 10 6 13 0;
#X connect 11 0 17 0;
#X connect 12 0 17 0;
#X connect 13 0 17 0;
#X connect 14 0 11 1;
#X connect 15 0 12 1;
#X connect 16 0 13 1;
#X connect 17 0 24 0;
#X connect 18 0 3 0;
#X connect 20 0 2 0;
#X connect 21 0 14 0;
#X connect 22 0 15 0;
#X connect 23 0 16 0;
#X connect 26 0 6 0;
#X connect 29 0 25 0;
#X coords 0 1336 2 1334 0 0 0;
#X restore 661 638 pd drum2;
#N canvas 408 54 958 729 drum3 0;
#N canvas 78 78 450 250 (subpatch) 0;
#X array \$0-steps3 16 float 3;
#A 0 4 0 2 10 5 10 2 0 2 10 4 0 5 10 6 10;
#X coords 0 6 16 0 200 140 1 0 0;
#X restore 404 523 graph;
#N canvas 1023 136 750 655 counter 0;
#X obj 228 92 inlet;
#X obj 322 93 inlet;
#X obj 228 130 tgl 19 0 empty empty empty 0 -10 0 12 #fcfcfc #000000 #000000 0 1;
#X floatatom 322 131 5 0 0 0 - - - 0;
#X text 365 128 BPM;
#X msg 322 162 tempo \$1 permin;
#X obj 228 162 t f b;
#X obj 229 202 metro 0.25 120 permin;
#X msg 261 236;
#X text 301 238 Reset;
#X obj 233 273 f;
#X obj 286 275 + 1;
#X obj 233 322 % 16;
#X obj 232 368 outlet;
#X connect 0 0 2 0;
#X connect 1 0 3 0;
#X connect 2 0 6 0;
#X connect 3 0 5 0;
#X connect 5 0 7 0;
#X connect 6 0 7 0;
#X connect 6 1 8 0;
#X connect 7 0 10 0;
#X connect 8 0 10 1;
#X connect 10 0 11 0;
#X connect 10 0 12 0;
#X connect 11 0 10 1;
#X connect 12 0 13 0;
#X restore 103 556 pd counter;
#X obj 103 517 tgl 19 0 empty empty empty 0 -10 0 12 #fcfcfc #000000 #000000 0 1;
#X floatatom 173 510 5 0 0 0 - - - 0;
#X obj 103 593 hradio 15 1 0 16 empty empty empty 0 -10 0 12 #ffffff #000000 #000000 0;
#X msg 162 617 1;
#X floatatom 105 683 5 0 0 0 - - - 0;
#X obj 106 729 + 0.5;
#X obj 106 774 int;
#X floatatom 104 810 5 0 0 0 - - - 0;
#X obj 106 848 select 0 1 2 3 4 5 6;
#N canvas -7 164 705 729 kick 0;
#X text 311 62 Kick;
#X obj 187 118 inlet;
#X obj 266 119 inlet;
#X obj 188 157 bng 19 250 50 0 empty empty empty 0 -10 0 12 #fcfcfc #000000 #000000;
#X obj 285 204 f;
#X msg 154 203 150 \, 50 \, 70 \, 0;
#X obj 189 264 vline~;
#X obj 188 300 osc~;
#X obj 194 344 *~;
#X obj 193 388 outlet~;
#X obj 266 321 vline~;
#X msg 268 275 \$1 1 0 \, 0 100 1;
#X connect 1 0 3 0;
#X connect 2 0 4 1;
#X connect 3 0 4 0;
#X connect 3 0 5 0;
#X connect 4 0 11 0;
#X connect 5 0 6 0;
#X connect 6 0 7 0;
#X connect 7 0 8 0;
#X connect 8 0 9 0;
#X connect 10 0 8 1;
#X connect 11 0 10 0;
#X restore 34 984 pd kick;
#N canvas 1097 177 630 660 snare 0;
#X obj 124 63 noise~;
#X obj 125 101 lop~ 3000;
#X obj 128 137 hip~ 1000;
#X obj 220 174 osc~ 180;
#X obj 222 212 *~ 0.5;
#X obj 226 257 *~;
#X obj 227 301 outlet~;
#X obj 326 233 *~;
#X obj 321 200 vline~;
#X msg 323 170 \$1 1 0 \, 0 150 1;
#X obj 322 138 f;
#X obj 303 99 inlet;
#X obj 377 95 inlet;
#X connect 0 0 1 0;
#X connect 1 0 2 0;
#X connect 2 0 5 0;
#X connect 4 0 5 0;
#X connect 5 0 6 0;
#X connect 7 0 5 1;
#X connect 8 0 7 0;
#X connect 8 0 7 1;
#X connect 9 0 8 0;
#X connect 10 0 9 0;
#X connect 11 0 10 0;
#X connect 12 0 10 1;
#X restore 152 932 pd snare;
#N canvas 1081 169 633 581 hats 0;
#X obj 236 49 inlet;
#X obj 318 51 inlet;
#X obj 237 83 bng 19 250 50 0 empty empty empty 0 -10 0 12 #fcfcfc #000000 #000000;
#X obj 260 113 f;
#X obj 261 147 t f b;
#X obj 296 188 random 10;
#X obj 296 228 / 20;
#X obj 298 273 + 0.7;
#X obj 267 318 *;
#X obj 63 325 noise~;
#X obj 57 358 hip~ 20000;
#X obj 56 386 hip~ 10000;
#X obj 90 427 *~;
#X msg 165 353 \$1 \, 0 40 1;
#X obj 164 386 vline~;
#X obj 89 466 outlet~;
#X connect 0 0 2 0;
#X connect 1 0 3 1;
#X connect 2 0 3 0;
#X connect 3 0 4 0;
#X connect 4 0 8 0;
#X connect 4 1 5 0;
#X connect 5 0 6 0;
#X connect 6 0 7 0;
#X connect 7 0 8 1;
#X connect 8 0 13 0;
#X connect 9 0 10 0;
#X connect 10 0 11 0;
#X connect 11 0 12 0;
#X connect 12 0 15 0;
#X connect 13 0 14 0;
#X connect 14 0 12 1;
#X restore 300 909 pd hats;
#X floatatom 102 975 5 0 1 0 - - - 0;
#X floatatom 220 904 5 0 1 0 - - - 0;
#X floatatom 350 869 5 0 1 0 - - - 0;
#X obj 151 1043 +~;
#X obj 160 477 inlet;
#X obj 220 990;
#X obj 79 468 inlet;
#X obj 106 941 inlet;
#X obj 265 850 inlet;
#X obj 358 825 inlet;
#X obj 147 1104 outlet~;
#X obj 103 646 array get \$0-steps3;
#X obj 393 777 array set \$0-steps3;
#X msg 390 745 4 0 2 10 5 10 2 0 2 10 4 0 5 10 6 10;
#X connect 1 0 4 0;
#X connect 2 0 1 0;
#X connect 2 0 27 0;
#X connect 3 0 1 1;
#X connect 4 0 25 0;
#X connect 5 0 25 1;
#X connect 6 0 7 0;
#X connect 7 0 8 0;
#X connect 8 0 9 0;
#X connect 9 0 10 0;
#X connect 10 0 11 0;
#X connect 10 1 12 0;
#X connect 10 2 13 0;
#X connect 10 3 11 0;
#X connect 10 3 12 0;
#X connect 10 4 11 0;
#X connect 10 4 13 0;
#X connect 10 5 12 0;
#X connect 10 5 13 0;
#X connect 10 6 11 0;
#X connect 10 6 12 0;
#X connect 10 6 13 0;
#X connect 11 0 17 0;
#X connect 12 0 17 0;
#X connect 13 0 17 0;
#X connect 14 0 11 1;
#X connect 15 0 12 1;
#X connect 16 0 13 1;
#X connect 17 0 24 0;
#X connect 18 0 3 0;
#X connect 20 0 2 0;
#X connect 21 0 14 0;
#X connect 22 0 15 0;
#X connect 23 0 16 0;
#X connect 25 0 6 0;
#X connect 27 0 26 0;
#X coords 0 1458 2 1456 0 0 0;
#X restore 652 885 pd drum3;
#N canvas 324 27 958 729 drum4 0;
#N canvas 0 50 450 250 (subpatch) 0;
#X array \$0-steps4 16 float 3;
#A 0 4 10 2 10 5 10 2 2 2 10 4 10 5 0 2 2;
#X coords 0 6 16 0 200 140 1 0 0;
#X restore 404 523 graph;
#N canvas 1023 136 750 655 counter 0;
#X obj 228 92 inlet;
#X obj 322 93 inlet;
#X obj 228 130 tgl 19 0 empty empty empty 0 -10 0 12 #fcfcfc #000000 #000000 0 1;
#X floatatom 322 131 5 0 0 0 - - - 0;
#X text 365 128 BPM;
#X msg 322 162 tempo \$1 permin;
#X obj 228 162 t f b;
#X obj 229 202 metro 0.25 120 permin;
#X msg 261 236;
#X text 301 238 Reset;
#X obj 233 273 f;
#X obj 286 275 + 1;
#X obj 233 322 % 16;
#X obj 232 368 outlet;
#X connect 0 0 2 0;
#X connect 1 0 3 0;
#X connect 2 0 6 0;
#X connect 3 0 5 0;
#X connect 5 0 7 0;
#X connect 6 0 7 0;
#X connect 6 1 8 0;
#X connect 7 0 10 0;
#X connect 8 0 10 1;
#X connect 10 0 11 0;
#X connect 10 0 12 0;
#X connect 11 0 10 1;
#X connect 12 0 13 0;
#X restore 103 556 pd counter;
#X obj 103 517 tgl 19 0 empty empty empty 0 -10 0 12 #fcfcfc #000000 #000000 0 1;
#X floatatom 173 510 5 0 0 0 - - - 0;
#X obj 103 593 hradio 15 1 0 16 empty empty empty 0 -10 0 12 #ffffff #000000 #000000 0;
#X msg 162 617 1;
#X floatatom 105 683 5 0 0 0 - - - 0;
#X obj 106 729 + 0.5;
#X obj 106 774 int;
#X floatatom 104 810 5 0 0 0 - - - 0;
#X obj 106 848 select 0 1 2 3 4 5 6;
#N canvas -7 164 705 729 kick 0;
#X text 311 62 Kick;
#X obj 187 118 inlet;
#X obj 266 119 inlet;
#X obj 188 157 bng 19 250 50 0 empty empty empty 0 -10 0 12 #fcfcfc #000000 #000000;
#X obj 285 204 f;
#X msg 154 203 150 \, 50 \, 70 \, 0;
#X obj 189 264 vline~;
#X obj 188 300 osc~;
#X obj 194 344 *~;
#X obj 193 388 outlet~;
#X obj 266 321 vline~;
#X msg 268 275 \$1 1 0 \, 0 100 1;
#X connect 1 0 3 0;
#X connect 2 0 4 1;
#X connect 3 0 4 0;
#X connect 3 0 5 0;
#X connect 4 0 11 0;
#X connect 5 0 6 0;
#X connect 6 0 7 0;
#X connect 7 0 8 0;
#X connect 8 0 9 0;
#X connect 10 0 8 1;
#X connect 11 0 10 0;
#X restore 34 984 pd kick;
#N canvas 1097 177 630 660 snare 0;
#X obj 124 63 noise~;
#X obj 125 101 lop~ 3000;
#X obj 128 137 hip~ 1000;
#X obj 220 174 osc~ 180;
#X obj 222 212 *~ 0.5;
#X obj 226 257 *~;
#X obj 227 301 outlet~;
#X obj 326 233 *~;
#X obj 321 200 vline~;
#X msg 323 170 \$1 1 0 \, 0 150 1;
#X obj 322 138 f;
#X obj 303 99 inlet;
#X obj 377 95 inlet;
#X connect 0 0 1 0;
#X connect 1 0 2 0;
#X connect 2 0 5 0;
#X connect 4 0 5 0;
#X connect 5 0 6 0;
#X connect 7 0 5 1;
#X connect 8 0 7 0;
#X connect 8 0 7 1;
#X connect 9 0 8 0;
#X connect 10 0 9 0;
#X connect 11 0 10 0;
#X connect 12 0 10 1;
#X restore 152 932 pd snare;
#N canvas 1081 169 633 581 hats 0;
#X obj 236 49 inlet;
#X obj 318 51 inlet;
#X obj 237 83 bng 19 250 50 0 empty empty empty 0 -10 0 12 #fcfcfc #000000 #000000;
#X obj 260 113 f;
#X obj 261 147 t f b;
#X obj 296 188 random 10;
#X obj 296 228 / 20;
#X obj 298 273 + 0.7;
#X obj 267 318 *;
#X obj 63 325 noise~;
#X obj 57 358 hip~ 20000;
#X obj 56 386 hip~ 10000;
#X obj 90 427 *~;
#X msg 165 353 \$1 \, 0 40 1;
#X obj 164 386 vline~;
#X obj 89 466 outlet~;
#X connect 0 0 2 0;
#X connect 1 0 3 1;
#X connect 2 0 3 0;
#X connect 3 0 4 0;
#X connect 4 0 8 0;
#X connect 4 1 5 0;
#X connect 5 0 6 0;
#X connect 6 0 7 0;
#X connect 7 0 8 1;
#X connect 8 0 13 0;
#X connect 9 0 10 0;
#X connect 10 0 11 0;
#X connect 11 0 12 0;
#X connect 12 0 15 0;
#X connect 13 0 14 0;
#X connect 14 0 12 1;
#X restore 300 909 pd hats;
#X floatatom 102 975 5 0 1 0 - - - 0;
#X floatatom 220 904 5 0 1 0 - - - 0;
#X floatatom 350 869 5 0 1 0 - - - 0;
#X obj 151 1043 +~;
#X obj 160 477 inlet;
#X obj 220 990;
#X obj 79 468 inlet;
#X obj 106 941 inlet;
#X obj 265 850 inlet;
#X obj 358 825 inlet;
#X obj 147 1104 outlet~;
#X obj 393 777 array set \$0-steps4;
#X obj 103 646 array get \$0-steps4;
#X msg 390 745 4 10 2 10 5 10 2 2 2 10 4 10 5 0 2 2;
#X connect 1 0 4 0;
#X connect 2 0 1 0;
#X connect 2 0 27 0;
#X connect 3 0 1 1;
#X connect 4 0 26 0;
#X connect 5 0 26 1;
#X connect 6 0 7 0;
#X connect 7 0 8 0;
#X connect 8 0 9 0;
#X connect 9 0 10 0;
#X connect 10 0 11 0;
#X connect 10 1 12 0;
#X connect 10 2 13 0;
#X connect 10 3 11 0;
#X connect 10 3 12 0;
#X connect 10 4 11 0;
#X connect 10 4 13 0;
#X connect 10 5 12 0;
#X connect 10 5 13 0;
#X connect 10 6 11 0;
#X connect 10 6 12 0;
#X connect 10 6 13 0;
#X connect 11 0 17 0;
#X connect 12 0 17 0;
#X connect 13 0 17 0;
#X connect 14 0 11 1;
#X connect 15 0 12 1;
#X connect 16 0 13 1;
#X connect 17 0 24 0;
#X connect 18 0 3 0;
#X connect 20 0 2 0;
#X connect 21 0 14 0;
#X connect 22 0 15 0;
#X connect 23 0 16 0;
#X connect 26 0 6 0;
#X connect 27 0 25 0;
#X coords 0 1458 2 1456 0 0 0;
#X restore 1216 346 pd drum4;
#N canvas 419 65 958 729 drum5 0;
#N canvas 156 156 450 250 (subpatch) 0;
#X array \$0-steps5 16 float 3;
#A 0 4 2 4 2 5 2 4 5 2 5 4 5 5 4 2 5;
#X coords 0 6 16 0 200 140 1 0 0;
#X restore 404 523 graph;
#N canvas 1023 136 750 655 counter 0;
#X obj 228 92 inlet;
#X obj 322 93 inlet;
#X obj 228 130 tgl 19 0 empty empty empty 0 -10 0 12 #fcfcfc #000000 #000000 0 1;
#X floatatom 322 131 5 0 0 0 - - - 0;
#X text 365 128 BPM;
#X msg 322 162 tempo \$1 permin;
#X obj 228 162 t f b;
#X obj 229 202 metro 0.25 120 permin;
#X msg 261 236;
#X text 301 238 Reset;
#X obj 233 273 f;
#X obj 286 275 + 1;
#X obj 233 322 % 16;
#X obj 232 368 outlet;
#X connect 0 0 2 0;
#X connect 1 0 3 0;
#X connect 2 0 6 0;
#X connect 3 0 5 0;
#X connect 5 0 7 0;
#X connect 6 0 7 0;
#X connect 6 1 8 0;
#X connect 7 0 10 0;
#X connect 8 0 10 1;
#X connect 10 0 11 0;
#X connect 10 0 12 0;
#X connect 11 0 10 1;
#X connect 12 0 13 0;
#X restore 103 556 pd counter;
#X obj 103 517 tgl 19 0 empty empty empty 0 -10 0 12 #fcfcfc #000000 #000000 0 1;
#X floatatom 173 510 5 0 0 0 - - - 0;
#X obj 103 593 hradio 15 1 0 16 empty empty empty 0 -10 0 12 #ffffff #000000 #000000 0;
#X msg 162 617 1;
#X floatatom 105 683 5 0 0 0 - - - 0;
#X obj 106 729 + 0.5;
#X obj 106 774 int;
#X floatatom 104 810 5 0 0 0 - - - 0;
#X obj 106 848 select 0 1 2 3 4 5 6;
#N canvas -7 164 705 729 kick 0;
#X text 311 62 Kick;
#X obj 187 118 inlet;
#X obj 266 119 inlet;
#X obj 188 157 bng 19 250 50 0 empty empty empty 0 -10 0 12 #fcfcfc #000000 #000000;
#X obj 285 204 f;
#X msg 154 203 150 \, 50 \, 70 \, 0;
#X obj 189 264 vline~;
#X obj 188 300 osc~;
#X obj 194 344 *~;
#X obj 193 388 outlet~;
#X obj 266 321 vline~;
#X msg 268 275 \$1 1 0 \, 0 100 1;
#X connect 1 0 3 0;
#X connect 2 0 4 1;
#X connect 3 0 4 0;
#X connect 3 0 5 0;
#X connect 4 0 11 0;
#X connect 5 0 6 0;
#X connect 6 0 7 0;
#X connect 7 0 8 0;
#X connect 8 0 9 0;
#X connect 10 0 8 1;
#X connect 11 0 10 0;
#X restore 34 984 pd kick;
#N canvas 1097 177 630 660 snare 0;
#X obj 124 63 noise~;
#X obj 125 101 lop~ 3000;
#X obj 128 137 hip~ 1000;
#X obj 220 174 osc~ 180;
#X obj 222 212 *~ 0.5;
#X obj 226 257 *~;
#X obj 227 301 outlet~;
#X obj 326 233 *~;
#X obj 321 200 vline~;
#X msg 323 170 \$1 1 0 \, 0 150 1;
#X obj 322 138 f;
#X obj 303 99 inlet;
#X obj 377 95 inlet;
#X connect 0 0 1 0;
#X connect 1 0 2 0;
#X connect 2 0 5 0;
#X connect 4 0 5 0;
#X connect 5 0 6 0;
#X connect 7 0 5 1;
#X connect 8 0 7 0;
#X connect 8 0 7 1;
#X connect 9 0 8 0;
#X connect 10 0 9 0;
#X connect 11 0 10 0;
#X connect 12 0 10 1;
#X restore 152 932 pd snare;
#N canvas 1081 169 633 581 hats 0;
#X obj 236 49 inlet;
#X obj 318 51 inlet;
#X obj 237 83 bng 19 250 50 0 empty empty empty 0 -10 0 12 #fcfcfc #000000 #000000;
#X obj 260 113 f;
#X obj 261 147 t f b;
#X obj 296 188 random 10;
#X obj 296 228 / 20;
#X obj 298 273 + 0.7;
#X obj 267 318 *;
#X obj 63 325 noise~;
#X obj 57 358 hip~ 20000;
#X obj 56 386 hip~ 10000;
#X obj 90 427 *~;
#X msg 165 353 \$1 \, 0 40 1;
#X obj 164 386 vline~;
#X obj 89 466 outlet~;
#X connect 0 0 2 0;
#X connect 1 0 3 1;
#X connect 2 0 3 0;
#X connect 3 0 4 0;
#X connect 4 0 8 0;
#X connect 4 1 5 0;
#X connect 5 0 6 0;
#X connect 6 0 7 0;
#X connect 7 0 8 1;
#X connect 8 0 13 0;
#X connect 9 0 10 0;
#X connect 10 0 11 0;
#X connect 11 0 12 0;
#X connect 12 0 15 0;
#X connect 13 0 14 0;
#X connect 14 0 12 1;
#X restore 300 909 pd hats;
#X floatatom 102 975 5 0 1 0 - - - 0;
#X floatatom 220 904 5 0 1 0 - - - 0;
#X floatatom 350 869 5 0 1 0 - - - 0;
#X obj 151 1043 +~;
#X obj 160 477 inlet;
#X obj 220 990;
#X obj 79 468 inlet;
#X obj 106 941 inlet;
#X obj 265 850 inlet;
#X obj 358 825 inlet;
#X obj 147 1104 outlet~;
#X obj 103 646 array get \$0-steps5;
#X obj 393 777 array set \$0-steps5;
#X msg 390 745 4 2 4 2 5 2 4 5 2 5 4 5 5 4 2 5;
#X connect 1 0 4 0;
#X connect 2 0 1 0;
#X connect 2 0 27 0;
#X connect 3 0 1 1;
#X connect 4 0 25 0;
#X connect 5 0 25 1;
#X connect 6 0 7 0;
#X connect 7 0 8 0;
#X connect 8 0 9 0;
#X connect 9 0 10 0;
#X connect 10 0 11 0;
#X connect 10 1 12 0;
#X connect 10 2 13 0;
#X connect 10 3 11 0;
#X connect 10 3 12 0;
#X connect 10 4 11 0;
#X connect 10 4 13 0;
#X connect 10 5 12 0;
#X connect 10 5 13 0;
#X connect 10 6 11 0;
#X connect 10 6 12 0;
#X connect 10 6 13 0;
#X connect 11 0 17 0;
#X connect 12 0 17 0;
#X connect 13 0 17 0;
#X connect 14 0 11 1;
#X connect 15 0 12 1;
#X connect 16 0 13 1;
#X connect 17 0 24 0;
#X connect 18 0 3 0;
#X connect 20 0 2 0;
#X connect 21 0 14 0;
#X connect 22 0 15 0;
#X connect 23 0 16 0;
#X connect 25 0 6 0;
#X connect 27 0 26 0;
#X coords 0 1458 2 1456 0 0 0;
#X restore 1213 642 pd drum5;
#N canvas 422 87 958 729 drum6 0;
#N canvas 0 50 450 250 (subpatch) 0;
#X array \$0-steps6 16 float 3;
#A 0 0 2 2 10 3 10 2 2 0 2 2 10 3 10 2 10;
#X coords 0 6 16 0 200 140 1 0 0;
#X restore 404 523 graph;
#N canvas 1023 136 750 655 counter 0;
#X obj 228 92 inlet;
#X obj 322 93 inlet;
#X obj 228 130 tgl 19 0 empty empty empty 0 -10 0 12 #fcfcfc #000000 #000000 0 1;
#X floatatom 322 131 5 0 0 0 - - - 0;
#X text 365 128 BPM;
#X msg 322 162 tempo \$1 permin;
#X obj 228 162 t f b;
#X obj 229 202 metro 0.25 120 permin;
#X msg 261 236;
#X text 301 238 Reset;
#X obj 233 273 f;
#X obj 286 275 + 1;
#X obj 233 322 % 16;
#X obj 232 368 outlet;
#X connect 0 0 2 0;
#X connect 1 0 3 0;
#X connect 2 0 6 0;
#X connect 3 0 5 0;
#X connect 5 0 7 0;
#X connect 6 0 7 0;
#X connect 6 1 8 0;
#X connect 7 0 10 0;
#X connect 8 0 10 1;
#X connect 10 0 11 0;
#X connect 10 0 12 0;
#X connect 11 0 10 1;
#X connect 12 0 13 0;
#X restore 103 556 pd counter;
#X obj 103 517 tgl 19 0 empty empty empty 0 -10 0 12 #fcfcfc #000000 #000000 0 1;
#X floatatom 173 510 5 0 0 0 - - - 0;
#X obj 103 593 hradio 15 1 0 16 empty empty empty 0 -10 0 12 #ffffff #000000 #000000 0;
#X msg 162 617 1;
#X floatatom 105 683 5 0 0 0 - - - 0;
#X obj 106 729 + 0.5;
#X obj 106 774 int;
#X floatatom 104 810 5 0 0 0 - - - 0;
#X obj 106 848 select 0 1 2 3 4 5 6;
#N canvas -7 164 705 729 kick 0;
#X text 311 62 Kick;
#X obj 187 118 inlet;
#X obj 266 119 inlet;
#X obj 188 157 bng 19 250 50 0 empty empty empty 0 -10 0 12 #fcfcfc #000000 #000000;
#X obj 285 204 f;
#X msg 154 203 150 \, 50 \, 70 \, 0;
#X obj 189 264 vline~;
#X obj 188 300 osc~;
#X obj 194 344 *~;
#X obj 193 388 outlet~;
#X obj 266 321 vline~;
#X msg 268 275 \$1 1 0 \, 0 100 1;
#X connect 1 0 3 0;
#X connect 2 0 4 1;
#X connect 3 0 4 0;
#X connect 3 0 5 0;
#X connect 4 0 11 0;
#X connect 5 0 6 0;
#X connect 6 0 7 0;
#X connect 7 0 8 0;
#X connect 8 0 9 0;
#X connect 10 0 8 1;
#X connect 11 0 10 0;
#X restore 34 984 pd kick;
#N canvas 1097 177 630 660 snare 0;
#X obj 124 63 noise~;
#X obj 125 101 lop~ 3000;
#X obj 128 137 hip~ 1000;
#X obj 220 174 osc~ 180;
#X obj 222 212 *~ 0.5;
#X obj 226 257 *~;
#X obj 227 301 outlet~;
#X obj 326 233 *~;
#X obj 321 200 vline~;
#X msg 323 170 \$1 1 0 \, 0 150 1;
#X obj 322 138 f;
#X obj 303 99 inlet;
#X obj 377 95 inlet;
#X connect 0 0 1 0;
#X connect 1 0 2 0;
#X connect 2 0 5 0;
#X connect 4 0 5 0;
#X connect 5 0 6 0;
#X connect 7 0 5 1;
#X connect 8 0 7 0;
#X connect 8 0 7 1;
#X connect 9 0 8 0;
#X connect 10 0 9 0;
#X connect 11 0 10 0;
#X connect 12 0 10 1;
#X restore 152 932 pd snare;
#N canvas 1081 169 633 581 hats 0;
#X obj 236 49 inlet;
#X obj 318 51 inlet;
#X obj 237 83 bng 19 250 50 0 empty empty empty 0 -10 0 12 #fcfcfc #000000 #000000;
#X obj 260 113 f;
#X obj 261 147 t f b;
#X obj 296 188 random 10;
#X obj 296 228 / 20;
#X obj 298 273 + 0.7;
#X obj 267 318 *;
#X obj 63 325 noise~;
#X obj 57 358 hip~ 20000;
#X obj 56 386 hip~ 10000;
#X obj 90 427 *~;
#X msg 165 353 \$1 \, 0 40 1;
#X obj 164 386 vline~;
#X obj 89 466 outlet~;
#X connect 0 0 2 0;
#X connect 1 0 3 1;
#X connect 2 0 3 0;
#X connect 3 0 4 0;
#X connect 4 0 8 0;
#X connect 4 1 5 0;
#X connect 5 0 6 0;
#X connect 6 0 7 0;
#X connect 7 0 8 1;
#X connect 8 0 13 0;
#X connect 9 0 10 0;
#X connect 10 0 11 0;
#X connect 11 0 12 0;
#X connect 12 0 15 0;
#X connect 13 0 14 0;
#X connect 14 0 12 1;
#X restore 300 909 pd hats;
#X floatatom 102 975 5 0 1 0 - - - 0;
#X floatatom 220 904 5 0 1 0 - - - 0;
#X floatatom 350 869 5 0 1 0 - - - 0;
#X obj 151 1043 +~;
#X obj 160 477 inlet;
#X obj 220 990;
#X obj 79 468 inlet;
#X obj 106 941 inlet;
#X obj 265 850 inlet;
#X obj 358 825 inlet;
#X obj 147 1104 outlet~;
#X obj 103 646 array get \$0-steps6;
#X obj 393 777 array set \$0-steps6;
#X msg 390 745 0 2 2 10 3 10 2 2 0 2 2 10 3 10 2 10;
#X connect 1 0 4 0;
#X connect 2 0 1 0;
#X connect 2 0 27 0;
#X connect 3 0 1 1;
#X connect 4 0 25 0;
#X connect 5 0 25 1;
#X connect 6 0 7 0;
#X connect 7 0 8 0;
#X connect 8 0 9 0;
#X connect 9 0 10 0;
#X connect 10 0 11 0;
#X connect 10 1 12 0;
#X connect 10 2 13 0;
#X connect 10 3 11 0;
#X connect 10 3 12 0;
#X connect 10 4 11 0;
#X connect 10 4 13 0;
#X connect 10 5 12 0;
#X connect 10 5 13 0;
#X connect 10 6 11 0;
#X connect 10 6 12 0;
#X connect 10 6 13 0;
#X connect 11 0 17 0;
#X connect 12 0 17 0;
#X connect 13 0 17 0;
#X connect 14 0 11 1;
#X connect 15 0 12 1;
#X connect 16 0 13 1;
#X connect 17 0 24 0;
#X connect 18 0 3 0;
#X connect 20 0 2 0;
#X connect 21 0 14 0;
#X connect 22 0 15 0;
#X connect 23 0 16 0;
#X connect 25 0 6 0;
#X connect 27 0 26 0;
#X coords 0 1458 2 1456 0 0 0;
#X restore 1204 889 pd drum6;
#N canvas 374 92 958 729 drum7 0;
#N canvas 0 50 450 250 (subpatch) 0;
#X array \$0-steps7 16 float 3;
#A 0 0 1 2 2 1 0 2 1 10 10 4 0 1 2 2 2;
#X coords 0 6 16 0 200 140 1 0 0;
#X restore 404 523 graph;
#N canvas 1023 136 750 655 counter 0;
#X obj 228 92 inlet;
#X obj 322 93 inlet;
#X obj 228 130 tgl 19 0 empty empty empty 0 -10 0 12 #fcfcfc #000000 #000000 0 1;
#X floatatom 322 131 5 0 0 0 - - - 0;
#X text 365 128 BPM;
#X msg 322 162 tempo \$1 permin;
#X obj 228 162 t f b;
#X obj 229 202 metro 0.25 120 permin;
#X msg 261 236;
#X text 301 238 Reset;
#X obj 233 273 f;
#X obj 286 275 + 1;
#X obj 233 322 % 16;
#X obj 232 368 outlet;
#X connect 0 0 2 0;
#X connect 1 0 3 0;
#X connect 2 0 6 0;
#X connect 3 0 5 0;
#X connect 5 0 7 0;
#X connect 6 0 7 0;
#X connect 6 1 8 0;
#X connect 7 0 10 0;
#X connect 8 0 10 1;
#X connect 10 0 11 0;
#X connect 10 0 12 0;
#X connect 11 0 10 1;
#X connect 12 0 13 0;
#X restore 103 556 pd counter;
#X obj 103 517 tgl 19 0 empty empty empty 0 -10 0 12 #fcfcfc #000000 #000000 0 1;
#X floatatom 173 510 5 0 0 0 - - - 0;
#X obj 103 593 hradio 15 1 0 16 empty empty empty 0 -10 0 12 #ffffff #000000 #000000 0;
#X msg 162 617 1;
#X floatatom 105 683 5 0 0 0 - - - 0;
#X obj 106 729 + 0.5;
#X obj 106 774 int;
#X floatatom 104 810 5 0 0 0 - - - 0;
#X obj 106 848 select 0 1 2 3 4 5 6;
#N canvas -7 164 705 729 kick 0;
#X text 311 62 Kick;
#X obj 187 118 inlet;
#X obj 266 119 inlet;
#X obj 188 157 bng 19 250 50 0 empty empty empty 0 -10 0 12 #fcfcfc #000000 #000000;
#X obj 285 204 f;
#X msg 154 203 150 \, 50 \, 70 \, 0;
#X obj 189 264 vline~;
#X obj 188 300 osc~;
#X obj 194 344 *~;
#X obj 193 388 outlet~;
#X obj 266 321 vline~;
#X msg 268 275 \$1 1 0 \, 0 100 1;
#X connect 1 0 3 0;
#X connect 2 0 4 1;
#X connect 3 0 4 0;
#X connect 3 0 5 0;
#X connect 4 0 11 0;
#X connect 5 0 6 0;
#X connect 6 0 7 0;
#X connect 7 0 8 0;
#X connect 8 0 9 0;
#X connect 10 0 8 1;
#X connect 11 0 10 0;
#X restore 34 984 pd kick;
#N canvas 1097 177 630 660 snare 0;
#X obj 124 63 noise~;
#X obj 125 101 lop~ 3000;
#X obj 128 137 hip~ 1000;
#X obj 220 174 osc~ 180;
#X obj 222 212 *~ 0.5;
#X obj 226 257 *~;
#X obj 227 301 outlet~;
#X obj 326 233 *~;
#X obj 321 200 vline~;
#X msg 323 170 \$1 1 0 \, 0 150 1;
#X obj 322 138 f;
#X obj 303 99 inlet;
#X obj 377 95 inlet;
#X connect 0 0 1 0;
#X connect 1 0 2 0;
#X connect 2 0 5 0;
#X connect 4 0 5 0;
#X connect 5 0 6 0;
#X connect 7 0 5 1;
#X connect 8 0 7 0;
#X connect 8 0 7 1;
#X connect 9 0 8 0;
#X connect 10 0 9 0;
#X connect 11 0 10 0;
#X connect 12 0 10 1;
#X restore 152 932 pd snare;
#N canvas 1081 169 633 581 hats 0;
#X obj 236 49 inlet;
#X obj 318 51 inlet;
#X obj 237 83 bng 19 250 50 0 empty empty empty 0 -10 0 12 #fcfcfc #000000 #000000;
#X obj 260 113 f;
#X obj 261 147 t f b;
#X obj 296 188 random 10;
#X obj 296 228 / 20;
#X obj 298 273 + 0.7;
#X obj 267 318 *;
#X obj 63 325 noise~;
#X obj 57 358 hip~ 20000;
#X obj 56 386 hip~ 10000;
#X obj 90 427 *~;
#X msg 165 353 \$1 \, 0 40 1;
#X obj 164 386 vline~;
#X obj 89 466 outlet~;
#X connect 0 0 2 0;
#X connect 1 0 3 1;
#X connect 2 0 3 0;
#X connect 3 0 4 0;
#X connect 4 0 8 0;
#X connect 4 1 5 0;
#X connect 5 0 6 0;
#X connect 6 0 7 0;
#X connect 7 0 8 1;
#X connect 8 0 13 0;
#X connect 9 0 10 0;
#X connect 10 0 11 0;
#X connect 11 0 12 0;
#X connect 12 0 15 0;
#X connect 13 0 14 0;
#X connect 14 0 12 1;
#X restore 300 909 pd hats;
#X floatatom 102 975 5 0 1 0 - - - 0;
#X floatatom 220 904 5 0 1 0 - - - 0;
#X floatatom 350 869 5 0 1 0 - - - 0;
#X obj 151 1043 +~;
#X obj 160 477 inlet;
#X obj 220 990;
#X obj 79 468 inlet;
#X obj 106 941 inlet;
#X obj 265 850 inlet;
#X obj 358 825 inlet;
#X obj 147 1104 outlet~;
#X obj 393 777 array set \$0-steps7;
#X obj 103 646 array get \$0-steps7;
#X msg 390 745 0 1 2 2 1 0 2 1 10 10 4 0 1 2 2 2 0 10 2 10;
#X connect 1 0 4 0;
#X connect 2 0 1 0;
#X connect 2 0 27 0;
#X connect 3 0 1 1;
#X connect 4 0 26 0;
#X connect 5 0 26 1;
#X connect 6 0 7 0;
#X connect 7 0 8 0;
#X connect 8 0 9 0;
#X connect 9 0 10 0;
#X connect 10 0 11 0;
#X connect 10 1 12 0;
#X connect 10 2 13 0;
#X connect 10 3 11 0;
#X connect 10 3 12 0;
#X connect 10 4 11 0;
#X connect 10 4 13 0;
#X connect 10 5 12 0;
#X connect 10 5 13 0;
#X connect 10 6 11 0;
#X connect 10 6 12 0;
#X connect 10 6 13 0;
#X connect 11 0 17 0;
#X connect 12 0 17 0;
#X connect 13 0 17 0;
#X connect 14 0 11 1;
#X connect 15 0 12 1;
#X connect 16 0 13 1;
#X connect 17 0 24 0;
#X connect 18 0 3 0;
#X connect 20 0 2 0;
#X connect 21 0 14 0;
#X connect 22 0 15 0;
#X connect 23 0 16 0;
#X connect 26 0 6 0;
#X connect 27 0 25 0;
#X coords 0 1458 2 1456 0 0 0;
#X restore 1801 352 pd drum7;
#N canvas 395 18 958 729 drum8 0;
#N canvas 0 50 450 250 (subpatch) 0;
#X array \$0-steps8 16 float 3;
#A 0 4 2 2 2 5 2 2 2 4 2 2 2 5 2 4 2;
#X coords 0 6 16 0 200 140 1 0 0;
#X restore 404 523 graph;
#N canvas 1023 136 750 655 counter 0;
#X obj 228 92 inlet;
#X obj 322 93 inlet;
#X obj 228 130 tgl 19 0 empty empty empty 0 -10 0 12 #fcfcfc #000000 #000000 0 1;
#X floatatom 322 131 5 0 0 0 - - - 0;
#X text 365 128 BPM;
#X msg 322 162 tempo \$1 permin;
#X obj 228 162 t f b;
#X obj 229 202 metro 0.25 120 permin;
#X msg 261 236;
#X text 301 238 Reset;
#X obj 233 273 f;
#X obj 286 275 + 1;
#X obj 233 322 % 16;
#X obj 232 368 outlet;
#X connect 0 0 2 0;
#X connect 1 0 3 0;
#X connect 2 0 6 0;
#X connect 3 0 5 0;
#X connect 5 0 7 0;
#X connect 6 0 7 0;
#X connect 6 1 8 0;
#X connect 7 0 10 0;
#X connect 8 0 10 1;
#X connect 10 0 11 0;
#X connect 10 0 12 0;
#X connect 11 0 10 1;
#X connect 12 0 13 0;
#X restore 103 556 pd counter;
#X obj 103 517 tgl 19 0 empty empty empty 0 -10 0 12 #fcfcfc #000000 #000000 0 1;
#X floatatom 173 510 5 0 0 0 - - - 0;
#X obj 103 593 hradio 15 1 0 16 empty empty empty 0 -10 0 12 #ffffff #000000 #000000 0;
#X msg 162 617 1;
#X floatatom 105 683 5 0 0 0 - - - 0;
#X obj 106 729 + 0.5;
#X obj 106 774 int;
#X floatatom 104 810 5 0 0 0 - - - 0;
#X obj 106 848 select 0 1 2 3 4 5 6;
#N canvas -7 164 705 729 kick 0;
#X text 311 62 Kick;
#X obj 187 118 inlet;
#X obj 266 119 inlet;
#X obj 188 157 bng 19 250 50 0 empty empty empty 0 -10 0 12 #fcfcfc #000000 #000000;
#X obj 285 204 f;
#X msg 154 203 150 \, 50 \, 70 \, 0;
#X obj 189 264 vline~;
#X obj 188 300 osc~;
#X obj 194 344 *~;
#X obj 193 388 outlet~;
#X obj 266 321 vline~;
#X msg 268 275 \$1 1 0 \, 0 100 1;
#X connect 1 0 3 0;
#X connect 2 0 4 1;
#X connect 3 0 4 0;
#X connect 3 0 5 0;
#X connect 4 0 11 0;
#X connect 5 0 6 0;
#X connect 6 0 7 0;
#X connect 7 0 8 0;
#X connect 8 0 9 0;
#X connect 10 0 8 1;
#X connect 11 0 10 0;
#X restore 34 984 pd kick;
#N canvas 1097 177 630 660 snare 0;
#X obj 124 63 noise~;
#X obj 125 101 lop~ 3000;
#X obj 128 137 hip~ 1000;
#X obj 220 174 osc~ 180;
#X obj 222 212 *~ 0.5;
#X obj 226 257 *~;
#X obj 227 301 outlet~;
#X obj 326 233 *~;
#X obj 321 200 vline~;
#X msg 323 170 \$1 1 0 \, 0 150 1;
#X obj 322 138 f;
#X obj 303 99 inlet;
#X obj 377 95 inlet;
#X connect 0 0 1 0;
#X connect 1 0 2 0;
#X connect 2 0 5 0;
#X connect 4 0 5 0;
#X connect 5 0 6 0;
#X connect 7 0 5 1;
#X connect 8 0 7 0;
#X connect 8 0 7 1;
#X connect 9 0 8 0;
#X connect 10 0 9 0;
#X connect 11 0 10 0;
#X connect 12 0 10 1;
#X restore 152 932 pd snare;
#N canvas 1081 169 633 581 hats 0;
#X obj 236 49 inlet;
#X obj 318 51 inlet;
#X obj 237 83 bng 19 250 50 0 empty empty empty 0 -10 0 12 #fcfcfc #000000 #000000;
#X obj 260 113 f;
#X obj 261 147 t f b;
#X obj 296 188 random 10;
#X obj 296 228 / 20;
#X obj 298 273 + 0.7;
#X obj 267 318 *;
#X obj 63 325 noise~;
#X obj 57 358 hip~ 20000;
#X obj 56 386 hip~ 10000;
#X obj 90 427 *~;
#X msg 165 353 \$1 \, 0 40 1;
#X obj 164 386 vline~;
#X obj 89 466 outlet~;
#X connect 0 0 2 0;
#X connect 1 0 3 1;
#X connect 2 0 3 0;
#X connect 3 0 4 0;
#X connect 4 0 8 0;
#X connect 4 1 5 0;
#X connect 5 0 6 0;
#X connect 6 0 7 0;
#X connect 7 0 8 1;
#X connect 8 0 13 0;
#X connect 9 0 10 0;
#X connect 10 0 11 0;
#X connect 11 0 12 0;
#X connect 12 0 15 0;
#X connect 13 0 14 0;
#X connect 14 0 12 1;
#X restore 300 909 pd hats;
#X floatatom 102 975 5 0 1 0 - - - 0;
#X floatatom 220 904 5 0 1 0 - - - 0;
#X floatatom 350 869 5 0 1 0 - - - 0;
#X obj 151 1043 +~;
#X obj 160 477 inlet;
#X obj 220 990;
#X obj 79 468 inlet;
#X obj 106 941 inlet;
#X obj 265 850 inlet;
#X obj 358 825 inlet;
#X obj 147 1104 outlet~;
#X obj 393 777 array set \$0-steps8;
#X obj 103 646 array get \$0-steps8;
#X msg 390 745 4 2 2 2 5 2 2 2 4 2 2 2 5 2 4 2;
#X connect 1 0 4 0;
#X connect 2 0 1 0;
#X connect 2 0 27 0;
#X connect 3 0 1 1;
#X connect 4 0 26 0;
#X connect 5 0 26 1;
#X connect 6 0 7 0;
#X connect 7 0 8 0;
#X connect 8 0 9 0;
#X connect 9 0 10 0;
#X connect 10 0 11 0;
#X connect 10 1 12 0;
#X connect 10 2 13 0;
#X connect 10 3 11 0;
#X connect 10 3 12 0;
#X connect 10 4 11 0;
#X connect 10 4 13 0;
#X connect 10 5 12 0;
#X connect 10 5 13 0;
#X connect 10 6 11 0;
#X connect 10 6 12 0;
#X connect 10 6 13 0;
#X connect 11 0 17 0;
#X connect 12 0 17 0;
#X connect 13 0 17 0;
#X connect 14 0 11 1;
#X connect 15 0 12 1;
#X connect 16 0 13 1;
#X connect 17 0 24 0;
#X connect 18 0 3 0;
#X connect 20 0 2 0;
#X connect 21 0 14 0;
#X connect 22 0 15 0;
#X connect 23 0 16 0;
#X connect 26 0 6 0;
#X connect 27 0 25 0;
#X coords 0 1458 2 1456 0 0 0;
#X restore 1798 648 pd drum8;
#X obj 82 1358 dac~;
#X obj 81 1316 *~;
#X msg 105 1163 read -resize sound.wav audio1;
#X obj 103 1198 soundfiler;
#X obj 90 1237 tabplay~ audio1;
#X obj 94 1126 bng 19 250 50 0 empty empty empty 0 -10 0 12 #fcfcfc #000000 #000000;
#X obj 180 1272 r slider2Dx;
#X obj 181 1312 route slider2Dx;
#X msg 22 830 open sound.wav;
#X msg 119 741 start;
#X msg 220 739 stop;
#X obj 175 933 writesf~ 1;
#X obj 1032 654 s~ drumSounf5;
#X obj 255 868 r~ drumSoundf;
#X obj 108 1038 r button3;
#X obj 105 1080 route button3;
#X obj 1493 1093 s~ drumSoundf;
#X obj 51 741 print s;
#X obj 274 744 print st;
#N canvas 0 50 450 250 (subpatch) 0;
#X array audio1 444096 float 2;
#X coords 0 1 444096 -1 200 140 1;
#X restore 359 1129 graph;
#X text 241 1045 Listen audio;
#X text 177 608 Record audio;
#X text 389 196 Piano;
#X text 1333 15 drumps;
#X text 107 117 OSCcontroller;
#X connect 3 0 4 0;
#X connect 3 0 4 1;
#X connect 3 0 146 0;
#X connect 5 0 3 0;
#X connect 6 0 3 2;
#X connect 7 0 3 3;
#X connect 8 0 3 1;
#X connect 9 0 3 4;
#X connect 15 0 123 0;
#X connect 16 0 123 2;
#X connect 17 0 123 3;
#X connect 18 0 123 1;
#X connect 19 0 123 4;
#X connect 25 0 124 0;
#X connect 26 0 124 2;
#X connect 27 0 124 3;
#X connect 28 0 124 1;
#X connect 29 0 124 4;
#X connect 35 0 125 0;
#X connect 36 0 125 2;
#X connect 37 0 125 3;
#X connect 38 0 125 1;
#X connect 39 0 125 4;
#X connect 45 0 126 0;
#X connect 46 0 126 2;
#X connect 47 0 126 3;
#X connect 48 0 126 1;
#X connect 49 0 126 4;
#X connect 55 0 127 0;
#X connect 56 0 127 2;
#X connect 57 0 127 3;
#X connect 58 0 127 1;
#X connect 59 0 127 4;
#X connect 65 0 128 0;
#X connect 66 0 128 2;
#X connect 67 0 128 3;
#X connect 68 0 128 1;
#X connect 69 0 128 4;
#X connect 75 0 129 0;
#X connect 76 0 129 2;
#X connect 77 0 129 3;
#X connect 78 0 129 1;
#X connect 79 0 129 4;
#X connect 84 0 85 0;
#X connect 85 0 86 0;
#X connect 86 0 87 0;
#X connect 87 0 88 0;
#X connect 88 0 89 0;
#X connect 88 0 90 0;
#X connect 89 0 90 1;
#X connect 91 0 92 0;
#X connect 92 0 8 0;
#X connect 92 0 18 0;
#X connect 92 0 28 0;
#X connect 92 0 38 0;
#X connect 92 0 48 0;
#X connect 92 0 58 0;
#X connect 92 0 68 0;
#X connect 92 0 78 0;
#X connect 93 0 7 0;
#X connect 93 0 17 0;
#X connect 93 0 27 0;
#X connect 93 0 37 0;
#X connect 93 0 47 0;
#X connect 93 0 57 0;
#X connect 93 0 67 0;
#X connect 93 0 77 0;
#X connect 94 0 93 0;
#X connect 95 0 96 0;
#X connect 96 0 9 0;
#X connect 96 0 19 0;
#X connect 96 0 29 0;
#X connect 96 0 39 0;
#X connect 96 0 49 0;
#X connect 96 0 59 0;
#X connect 96 0 69 0;
#X connect 96 0 79 0;
#X connect 97 0 98 0;
#X connect 98 0 5 0;
#X connect 99 0 100 0;
#X connect 100 0 15 0;
#X connect 101 0 102 0;
#X connect 102 0 25 0;
#X connect 103 0 104 0;
#X connect 104 0 35 0;
#X connect 105 0 106 0;
#X connect 106 0 45 0;
#X connect 107 0 108 0;
#X connect 108 0 55 0;
#X connect 109 0 110 0;
#X connect 110 0 65 0;
#X connect 111 0 112 0;
#X connect 112 0 75 0;
#X connect 113 0 114 0;
#X connect 114 0 115 0;
#X connect 115 0 36 0;
#X connect 115 0 6 0;
#X connect 115 0 16 0;
#X connect 115 0 26 0;
#X connect 115 0 46 0;
#X connect 115 0 56 0;
#X connect 115 0 66 0;
#X connect 115 0 76 0;
#X connect 116 0 115 1;
#X connect 117 0 119 0;
#X connect 118 0 120 0;
#X connect 119 0 139 0;
#X connect 120 0 140 0;
#X connect 122 0 121 0;
#X connect 122 1 121 1;
#X connect 123 0 14 0;
#X connect 123 0 14 1;
#X connect 123 0 146 0;
#X connect 124 0 24 0;
#X connect 124 0 24 1;
#X connect 124 0 146 0;
#X connect 125 0 34 0;
#X connect 125 0 34 1;
#X connect 125 0 146 0;
#X connect 126 0 44 0;
#X connect 126 0 44 1;
#X connect 126 0 146 0;
#X connect 127 0 54 0;
#X connect 127 0 54 1;
#X connect 127 0 146 0;
#X connect 128 0 64 0;
#X connect 128 0 64 1;
#X connect 128 0 146 0;
#X connect 129 0 74 0;
#X connect 129 0 74 1;
#X connect 129 0 146 0;
#X connect 131 0 130 0;
#X connect 131 0 130 1;
#X connect 132 0 133 0;
#X connect 134 0 131 0;
#X connect 135 0 134 0;
#X connect 135 0 132 0;
#X connect 136 0 137 0;
#X connect 137 0 131 1;
#X connect 138 0 141 0;
#X connect 139 0 141 0;
#X connect 139 0 147 0;
#X connect 140 0 141 0;
#X connect 140 0 148 0;
#X connect 140 0 134 0;
#X connect 143 0 141 0;
#X connect 144 0 145 0;
#X connect 145 0 135 0;
