#N canvas 622 0 1288 1076 12;
#N canvas 1202 277 450 276 kick 0;
#X text 311 62 Kick;
#X obj 187 118 inlet;
#X obj 266 119 inlet;
#X obj 188 157 bng 19 250 50 0 empty empty empty 0 -10 0 12 #fcfcfc #000000 #000000;
#X obj 285 204 f;
#X msg 154 203 150 \, 50 \, 70 \, 0;
#X obj 189 264 vline~;
#X obj 188 300 osc~;
#X obj 194 344 *~;
#X obj 193 388 outlet~;
#X obj 266 321 vline~;
#X msg 268 275 \$1 1 0 \, 0 100 1;
#X connect 1 0 3 0;
#X connect 2 0 4 1;
#X connect 3 0 4 0;
#X connect 3 0 5 0;
#X connect 4 0 11 0;
#X connect 5 0 6 0;
#X connect 6 0 7 0;
#X connect 7 0 8 0;
#X connect 8 0 9 0;
#X connect 10 0 8 1;
#X connect 11 0 10 0;
#X restore 2159 34 pd kick;
#N canvas 96 96 450 276 snare 0;
#X obj 124 63 noise~;
#X obj 125 101 lop~ 3000;
#X obj 128 137 hip~ 1000;
#X obj 220 174 osc~ 180;
#X obj 222 212 *~ 0.5;
#X obj 226 257 *~;
#X obj 227 301 outlet~;
#X obj 326 233 *~;
#X obj 321 200 vline~;
#X msg 323 170 \$1 1 0 \, 0 150 1;
#X obj 322 138 f;
#X obj 303 99 inlet;
#X obj 377 95 inlet;
#X connect 0 0 1 0;
#X connect 1 0 2 0;
#X connect 2 0 5 0;
#X connect 4 0 5 0;
#X connect 5 0 6 0;
#X connect 7 0 5 1;
#X connect 8 0 7 0;
#X connect 8 0 7 1;
#X connect 9 0 8 0;
#X connect 10 0 9 0;
#X connect 11 0 10 0;
#X connect 12 0 10 1;
#X restore 2157 90 pd snare;
#N canvas 192 192 450 276 hats 0;
#X obj 236 49 inlet;
#X obj 318 51 inlet;
#X obj 237 83 bng 19 250 50 0 empty empty empty 0 -10 0 12 #fcfcfc #000000 #000000;
#X obj 260 113 f;
#X obj 261 147 t f b;
#X obj 296 188 random 10;
#X obj 296 228 / 20;
#X obj 298 273 + 0.7;
#X obj 267 318 *;
#X obj 63 325 noise~;
#X obj 57 358 hip~ 20000;
#X obj 56 386 hip~ 10000;
#X obj 90 427 *~;
#X msg 165 353 \$1 \, 0 40 1;
#X obj 164 386 vline~;
#X obj 89 466 outlet~;
#X connect 0 0 2 0;
#X connect 1 0 3 1;
#X connect 2 0 3 0;
#X connect 3 0 4 0;
#X connect 4 0 8 0;
#X connect 4 1 5 0;
#X connect 5 0 6 0;
#X connect 6 0 7 0;
#X connect 7 0 8 1;
#X connect 8 0 13 0;
#X connect 9 0 10 0;
#X connect 10 0 11 0;
#X connect 11 0 12 0;
#X connect 12 0 15 0;
#X connect 13 0 14 0;
#X connect 14 0 12 1;
#X restore 2158 62 pd hats;
#N canvas -8 0 958 1076 drum 0;
#N canvas 0 50 450 250 (subpatch) 0;
#X array \$0-steps 16 float 3;
#A 0 0 2 3 4 5 6 0 1 2 3 4 5 6 0 1 2;
#X coords 0 6 16 0 200 140 1 0 0;
#X restore 404 870 graph;
#X obj 393 1124 array set \$0-steps;
#N canvas 1023 136 750 655 counter 0;
#X obj 228 92 inlet;
#X obj 322 93 inlet;
#X obj 228 130 tgl 19 0 empty empty empty 0 -10 0 12 #fcfcfc #000000 #000000 0 1;
#X floatatom 322 131 5 0 0 0 - - - 0;
#X text 365 128 BPM;
#X msg 322 162 tempo \$1 permin;
#X obj 228 162 t f b;
#X obj 229 202 metro 0.25 120 permin;
#X msg 261 236;
#X text 301 238 Reset;
#X obj 233 273 f;
#X obj 286 275 + 1;
#X obj 233 322 % 16;
#X obj 232 368 outlet;
#X connect 0 0 2 0;
#X connect 1 0 3 0;
#X connect 2 0 6 0;
#X connect 3 0 5 0;
#X connect 5 0 7 0;
#X connect 6 0 7 0;
#X connect 6 1 8 0;
#X connect 7 0 10 0;
#X connect 8 0 10 1;
#X connect 10 0 11 0;
#X connect 10 0 12 0;
#X connect 11 0 10 1;
#X connect 12 0 13 0;
#X restore 103 903 pd counter;
#X obj 103 864 tgl 19 0 empty empty empty 0 -10 0 12 #fcfcfc #000000 #000000 0 1;
#X floatatom 173 857 5 0 0 0 - - - 0;
#X obj 103 940 hradio 15 1 0 16 empty empty empty 0 -10 0 12 #ffffff #000000 #000000 0;
#X obj 103 993 array get \$0-steps;
#X msg 162 964 1;
#X floatatom 105 1030 5 0 0 0 - - - 0;
#X obj 106 1076 + 0.5;
#X obj 106 1121 int;
#X floatatom 104 1157 5 0 0 0 - - - 0;
#X obj 106 1195 select 0 1 2 3 4 5 6;
#N canvas -7 164 705 729 kick 0;
#X text 311 62 Kick;
#X obj 187 118 inlet;
#X obj 266 119 inlet;
#X obj 188 157 bng 19 250 50 0 empty empty empty 0 -10 0 12 #fcfcfc #000000 #000000;
#X obj 285 204 f;
#X msg 154 203 150 \, 50 \, 70 \, 0;
#X obj 189 264 vline~;
#X obj 188 300 osc~;
#X obj 194 344 *~;
#X obj 193 388 outlet~;
#X obj 266 321 vline~;
#X msg 268 275 \$1 1 0 \, 0 100 1;
#X connect 1 0 3 0;
#X connect 2 0 4 1;
#X connect 3 0 4 0;
#X connect 3 0 5 0;
#X connect 4 0 11 0;
#X connect 5 0 6 0;
#X connect 6 0 7 0;
#X connect 7 0 8 0;
#X connect 8 0 9 0;
#X connect 10 0 8 1;
#X connect 11 0 10 0;
#X restore 34 1331 pd kick;
#N canvas 1097 177 630 660 snare 0;
#X obj 124 63 noise~;
#X obj 125 101 lop~ 3000;
#X obj 128 137 hip~ 1000;
#X obj 220 174 osc~ 180;
#X obj 222 212 *~ 0.5;
#X obj 226 257 *~;
#X obj 227 301 outlet~;
#X obj 326 233 *~;
#X obj 321 200 vline~;
#X msg 323 170 \$1 1 0 \, 0 150 1;
#X obj 322 138 f;
#X obj 303 99 inlet;
#X obj 377 95 inlet;
#X connect 0 0 1 0;
#X connect 1 0 2 0;
#X connect 2 0 5 0;
#X connect 4 0 5 0;
#X connect 5 0 6 0;
#X connect 7 0 5 1;
#X connect 8 0 7 0;
#X connect 8 0 7 1;
#X connect 9 0 8 0;
#X connect 10 0 9 0;
#X connect 11 0 10 0;
#X connect 12 0 10 1;
#X restore 152 1279 pd snare;
#N canvas 1081 169 633 581 hats 0;
#X obj 236 49 inlet;
#X obj 318 51 inlet;
#X obj 237 83 bng 19 250 50 0 empty empty empty 0 -10 0 12 #fcfcfc #000000 #000000;
#X obj 260 113 f;
#X obj 261 147 t f b;
#X obj 296 188 random 10;
#X obj 296 228 / 20;
#X obj 298 273 + 0.7;
#X obj 267 318 *;
#X obj 63 325 noise~;
#X obj 57 358 hip~ 20000;
#X obj 56 386 hip~ 10000;
#X obj 90 427 *~;
#X msg 165 353 \$1 \, 0 40 1;
#X obj 164 386 vline~;
#X obj 89 466 outlet~;
#X connect 0 0 2 0;
#X connect 1 0 3 1;
#X connect 2 0 3 0;
#X connect 3 0 4 0;
#X connect 4 0 8 0;
#X connect 4 1 5 0;
#X connect 5 0 6 0;
#X connect 6 0 7 0;
#X connect 7 0 8 1;
#X connect 8 0 13 0;
#X connect 9 0 10 0;
#X connect 10 0 11 0;
#X connect 11 0 12 0;
#X connect 12 0 15 0;
#X connect 13 0 14 0;
#X connect 14 0 12 1;
#X restore 300 1256 pd hats;
#X floatatom 102 1322 5 0 1 0 - - - 0;
#X floatatom 220 1251 5 0 1 0 - - - 0;
#X floatatom 350 1216 5 0 1 0 - - - 0;
#X obj 151 1390 +~;
#X msg 390 1092;
#X obj 160 824 inlet;
#X obj 220 1337;
#X obj 79 815 inlet;
#X obj 106 1288 inlet;
#X obj 265 1197 inlet;
#X obj 358 1172 inlet;
#X obj 147 1451 outlet~;
#X obj 387 1059 inlet;
#X connect 2 0 5 0;
#X connect 3 0 2 0;
#X connect 4 0 2 1;
#X connect 5 0 6 0;
#X connect 6 0 8 0;
#X connect 7 0 6 1;
#X connect 8 0 9 0;
#X connect 9 0 10 0;
#X connect 10 0 11 0;
#X connect 11 0 12 0;
#X connect 12 0 13 0;
#X connect 12 1 14 0;
#X connect 12 2 15 0;
#X connect 12 3 13 0;
#X connect 12 3 14 0;
#X connect 12 4 13 0;
#X connect 12 4 15 0;
#X connect 12 5 14 0;
#X connect 12 5 15 0;
#X connect 12 6 13 0;
#X connect 12 6 14 0;
#X connect 12 6 15 0;
#X connect 13 0 19 0;
#X connect 14 0 19 0;
#X connect 15 0 19 0;
#X connect 16 0 13 1;
#X connect 17 0 14 1;
#X connect 18 0 15 1;
#X connect 19 0 27 0;
#X connect 20 0 1 0;
#X connect 21 0 4 0;
#X connect 23 0 3 0;
#X connect 24 0 16 0;
#X connect 25 0 17 0;
#X connect 26 0 18 0;
#X connect 28 0 20 0;
#X coords 0 2152 2 2150 0 0 0;
#X restore 464 334 pd drum;
#X obj 452 416 dac~;
#X obj 374 241 tgl 19 0 empty empty empty 0 -10 0 12 #fcfcfc #000000 #000000 0 1;
#X floatatom 461 240 5 0 0 0 - - - 0;
#X floatatom 510 241 5 0 1 0 - - - 0;
#X floatatom 414 240 5 0 1 0 - - - 0;
#X floatatom 556 241 5 0 1 0 - - - 0;
#X msg 616 242 0 2 3 4 5 6 0 1 2 3 4 5 6 0 1 2;
#X text 512 209 snare;
#X text 413 212 Kick;
#X text 570 209 hats;
#X text 464 211 BPM;
#N canvas -8 0 958 1076 drum 0;
#N canvas 0 50 450 250 (subpatch) 0;
#X array \$0-steps 16 float 3;
#A 0 0 2 3 4 5 6 0 1 2 3 4 5 6 0 1 2;
#X coords 0 6 16 0 200 140 1 0 0;
#X restore 404 870 graph;
#X obj 393 1124 array set \$0-steps;
#N canvas 1023 136 750 655 counter 0;
#X obj 228 92 inlet;
#X obj 322 93 inlet;
#X obj 228 130 tgl 19 0 empty empty empty 0 -10 0 12 #fcfcfc #000000 #000000 0 1;
#X floatatom 322 131 5 0 0 0 - - - 0;
#X text 365 128 BPM;
#X msg 322 162 tempo \$1 permin;
#X obj 228 162 t f b;
#X obj 229 202 metro 0.25 120 permin;
#X msg 261 236;
#X text 301 238 Reset;
#X obj 233 273 f;
#X obj 286 275 + 1;
#X obj 233 322 % 16;
#X obj 232 368 outlet;
#X connect 0 0 2 0;
#X connect 1 0 3 0;
#X connect 2 0 6 0;
#X connect 3 0 5 0;
#X connect 5 0 7 0;
#X connect 6 0 7 0;
#X connect 6 1 8 0;
#X connect 7 0 10 0;
#X connect 8 0 10 1;
#X connect 10 0 11 0;
#X connect 10 0 12 0;
#X connect 11 0 10 1;
#X connect 12 0 13 0;
#X restore 103 903 pd counter;
#X obj 103 864 tgl 19 0 empty empty empty 0 -10 0 12 #fcfcfc #000000 #000000 0 1;
#X floatatom 173 857 5 0 0 0 - - - 0;
#X obj 103 940 hradio 15 1 0 16 empty empty empty 0 -10 0 12 #ffffff #000000 #000000 0;
#X obj 103 993 array get \$0-steps;
#X msg 162 964 1;
#X floatatom 105 1030 5 0 0 0 - - - 0;
#X obj 106 1076 + 0.5;
#X obj 106 1121 int;
#X floatatom 104 1157 5 0 0 0 - - - 0;
#X obj 106 1195 select 0 1 2 3 4 5 6;
#N canvas -7 164 705 729 kick 0;
#X text 311 62 Kick;
#X obj 187 118 inlet;
#X obj 266 119 inlet;
#X obj 188 157 bng 19 250 50 0 empty empty empty 0 -10 0 12 #fcfcfc #000000 #000000;
#X obj 285 204 f;
#X msg 154 203 150 \, 50 \, 70 \, 0;
#X obj 189 264 vline~;
#X obj 188 300 osc~;
#X obj 194 344 *~;
#X obj 193 388 outlet~;
#X obj 266 321 vline~;
#X msg 268 275 \$1 1 0 \, 0 100 1;
#X connect 1 0 3 0;
#X connect 2 0 4 1;
#X connect 3 0 4 0;
#X connect 3 0 5 0;
#X connect 4 0 11 0;
#X connect 5 0 6 0;
#X connect 6 0 7 0;
#X connect 7 0 8 0;
#X connect 8 0 9 0;
#X connect 10 0 8 1;
#X connect 11 0 10 0;
#X restore 34 1331 pd kick;
#N canvas 1097 177 630 660 snare 0;
#X obj 124 63 noise~;
#X obj 125 101 lop~ 3000;
#X obj 128 137 hip~ 1000;
#X obj 220 174 osc~ 180;
#X obj 222 212 *~ 0.5;
#X obj 226 257 *~;
#X obj 227 301 outlet~;
#X obj 326 233 *~;
#X obj 321 200 vline~;
#X msg 323 170 \$1 1 0 \, 0 150 1;
#X obj 322 138 f;
#X obj 303 99 inlet;
#X obj 377 95 inlet;
#X connect 0 0 1 0;
#X connect 1 0 2 0;
#X connect 2 0 5 0;
#X connect 4 0 5 0;
#X connect 5 0 6 0;
#X connect 7 0 5 1;
#X connect 8 0 7 0;
#X connect 8 0 7 1;
#X connect 9 0 8 0;
#X connect 10 0 9 0;
#X connect 11 0 10 0;
#X connect 12 0 10 1;
#X restore 152 1279 pd snare;
#N canvas 1081 169 633 581 hats 0;
#X obj 236 49 inlet;
#X obj 318 51 inlet;
#X obj 237 83 bng 19 250 50 0 empty empty empty 0 -10 0 12 #fcfcfc #000000 #000000;
#X obj 260 113 f;
#X obj 261 147 t f b;
#X obj 296 188 random 10;
#X obj 296 228 / 20;
#X obj 298 273 + 0.7;
#X obj 267 318 *;
#X obj 63 325 noise~;
#X obj 57 358 hip~ 20000;
#X obj 56 386 hip~ 10000;
#X obj 90 427 *~;
#X msg 165 353 \$1 \, 0 40 1;
#X obj 164 386 vline~;
#X obj 89 466 outlet~;
#X connect 0 0 2 0;
#X connect 1 0 3 1;
#X connect 2 0 3 0;
#X connect 3 0 4 0;
#X connect 4 0 8 0;
#X connect 4 1 5 0;
#X connect 5 0 6 0;
#X connect 6 0 7 0;
#X connect 7 0 8 1;
#X connect 8 0 13 0;
#X connect 9 0 10 0;
#X connect 10 0 11 0;
#X connect 11 0 12 0;
#X connect 12 0 15 0;
#X connect 13 0 14 0;
#X connect 14 0 12 1;
#X restore 300 1256 pd hats;
#X floatatom 102 1322 5 0 1 0 - - - 0;
#X floatatom 220 1251 5 0 1 0 - - - 0;
#X floatatom 350 1216 5 0 1 0 - - - 0;
#X obj 151 1390 +~;
#X msg 390 1092;
#X obj 160 824 inlet;
#X obj 220 1337;
#X obj 79 815 inlet;
#X obj 106 1288 inlet;
#X obj 265 1197 inlet;
#X obj 358 1172 inlet;
#X obj 147 1451 outlet~;
#X obj 387 1059 inlet;
#X connect 2 0 5 0;
#X connect 3 0 2 0;
#X connect 4 0 2 1;
#X connect 5 0 6 0;
#X connect 6 0 8 0;
#X connect 7 0 6 1;
#X connect 8 0 9 0;
#X connect 9 0 10 0;
#X connect 10 0 11 0;
#X connect 11 0 12 0;
#X connect 12 0 13 0;
#X connect 12 1 14 0;
#X connect 12 2 15 0;
#X connect 12 3 13 0;
#X connect 12 3 14 0;
#X connect 12 4 13 0;
#X connect 12 4 15 0;
#X connect 12 5 14 0;
#X connect 12 5 15 0;
#X connect 12 6 13 0;
#X connect 12 6 14 0;
#X connect 12 6 15 0;
#X connect 13 0 19 0;
#X connect 14 0 19 0;
#X connect 15 0 19 0;
#X connect 16 0 13 1;
#X connect 17 0 14 1;
#X connect 18 0 15 1;
#X connect 19 0 27 0;
#X connect 20 0 1 0;
#X connect 21 0 4 0;
#X connect 23 0 3 0;
#X connect 24 0 16 0;
#X connect 25 0 17 0;
#X connect 26 0 18 0;
#X connect 28 0 20 0;
#X coords 0 2152 2 2150 0 0 0;
#X restore 461 630 pd drum;
#X obj 449 712 dac~;
#X obj 371 537 tgl 19 0 empty empty empty 0 -10 0 12 #fcfcfc #000000 #000000 0 1;
#X floatatom 458 536 5 0 0 0 - - - 0;
#X floatatom 507 537 5 0 1 0 - - - 0;
#X floatatom 411 536 5 0 1 0 - - - 0;
#X floatatom 553 537 5 0 1 0 - - - 0;
#X text 509 505 snare;
#X text 410 508 Kick;
#X text 567 505 hats;
#X text 461 507 BPM;
#N canvas -8 0 958 1076 drum 0;
#N canvas 0 50 450 250 (subpatch) 0;
#X array \$0-steps 16 float 3;
#A 0 0 2 3 4 5 6 0 1 2 3 4 5 6 0 1 2;
#X coords 0 6 16 0 200 140 1 0 0;
#X restore 404 870 graph;
#X obj 393 1124 array set \$0-steps;
#N canvas 1023 136 750 655 counter 0;
#X obj 228 92 inlet;
#X obj 322 93 inlet;
#X obj 228 130 tgl 19 0 empty empty empty 0 -10 0 12 #fcfcfc #000000 #000000 0 1;
#X floatatom 322 131 5 0 0 0 - - - 0;
#X text 365 128 BPM;
#X msg 322 162 tempo \$1 permin;
#X obj 228 162 t f b;
#X obj 229 202 metro 0.25 120 permin;
#X msg 261 236;
#X text 301 238 Reset;
#X obj 233 273 f;
#X obj 286 275 + 1;
#X obj 233 322 % 16;
#X obj 232 368 outlet;
#X connect 0 0 2 0;
#X connect 1 0 3 0;
#X connect 2 0 6 0;
#X connect 3 0 5 0;
#X connect 5 0 7 0;
#X connect 6 0 7 0;
#X connect 6 1 8 0;
#X connect 7 0 10 0;
#X connect 8 0 10 1;
#X connect 10 0 11 0;
#X connect 10 0 12 0;
#X connect 11 0 10 1;
#X connect 12 0 13 0;
#X restore 103 903 pd counter;
#X obj 103 864 tgl 19 0 empty empty empty 0 -10 0 12 #fcfcfc #000000 #000000 0 1;
#X floatatom 173 857 5 0 0 0 - - - 0;
#X obj 103 940 hradio 15 1 0 16 empty empty empty 0 -10 0 12 #ffffff #000000 #000000 0;
#X obj 103 993 array get \$0-steps;
#X msg 162 964 1;
#X floatatom 105 1030 5 0 0 0 - - - 0;
#X obj 106 1076 + 0.5;
#X obj 106 1121 int;
#X floatatom 104 1157 5 0 0 0 - - - 0;
#X obj 106 1195 select 0 1 2 3 4 5 6;
#N canvas -7 164 705 729 kick 0;
#X text 311 62 Kick;
#X obj 187 118 inlet;
#X obj 266 119 inlet;
#X obj 188 157 bng 19 250 50 0 empty empty empty 0 -10 0 12 #fcfcfc #000000 #000000;
#X obj 285 204 f;
#X msg 154 203 150 \, 50 \, 70 \, 0;
#X obj 189 264 vline~;
#X obj 188 300 osc~;
#X obj 194 344 *~;
#X obj 193 388 outlet~;
#X obj 266 321 vline~;
#X msg 268 275 \$1 1 0 \, 0 100 1;
#X connect 1 0 3 0;
#X connect 2 0 4 1;
#X connect 3 0 4 0;
#X connect 3 0 5 0;
#X connect 4 0 11 0;
#X connect 5 0 6 0;
#X connect 6 0 7 0;
#X connect 7 0 8 0;
#X connect 8 0 9 0;
#X connect 10 0 8 1;
#X connect 11 0 10 0;
#X restore 34 1331 pd kick;
#N canvas 1097 177 630 660 snare 0;
#X obj 124 63 noise~;
#X obj 125 101 lop~ 3000;
#X obj 128 137 hip~ 1000;
#X obj 220 174 osc~ 180;
#X obj 222 212 *~ 0.5;
#X obj 226 257 *~;
#X obj 227 301 outlet~;
#X obj 326 233 *~;
#X obj 321 200 vline~;
#X msg 323 170 \$1 1 0 \, 0 150 1;
#X obj 322 138 f;
#X obj 303 99 inlet;
#X obj 377 95 inlet;
#X connect 0 0 1 0;
#X connect 1 0 2 0;
#X connect 2 0 5 0;
#X connect 4 0 5 0;
#X connect 5 0 6 0;
#X connect 7 0 5 1;
#X connect 8 0 7 0;
#X connect 8 0 7 1;
#X connect 9 0 8 0;
#X connect 10 0 9 0;
#X connect 11 0 10 0;
#X connect 12 0 10 1;
#X restore 152 1279 pd snare;
#N canvas 1081 169 633 581 hats 0;
#X obj 236 49 inlet;
#X obj 318 51 inlet;
#X obj 237 83 bng 19 250 50 0 empty empty empty 0 -10 0 12 #fcfcfc #000000 #000000;
#X obj 260 113 f;
#X obj 261 147 t f b;
#X obj 296 188 random 10;
#X obj 296 228 / 20;
#X obj 298 273 + 0.7;
#X obj 267 318 *;
#X obj 63 325 noise~;
#X obj 57 358 hip~ 20000;
#X obj 56 386 hip~ 10000;
#X obj 90 427 *~;
#X msg 165 353 \$1 \, 0 40 1;
#X obj 164 386 vline~;
#X obj 89 466 outlet~;
#X connect 0 0 2 0;
#X connect 1 0 3 1;
#X connect 2 0 3 0;
#X connect 3 0 4 0;
#X connect 4 0 8 0;
#X connect 4 1 5 0;
#X connect 5 0 6 0;
#X connect 6 0 7 0;
#X connect 7 0 8 1;
#X connect 8 0 13 0;
#X connect 9 0 10 0;
#X connect 10 0 11 0;
#X connect 11 0 12 0;
#X connect 12 0 15 0;
#X connect 13 0 14 0;
#X connect 14 0 12 1;
#X restore 300 1256 pd hats;
#X floatatom 102 1322 5 0 1 0 - - - 0;
#X floatatom 220 1251 5 0 1 0 - - - 0;
#X floatatom 350 1216 5 0 1 0 - - - 0;
#X obj 151 1390 +~;
#X msg 390 1092;
#X obj 160 824 inlet;
#X obj 220 1337;
#X obj 79 815 inlet;
#X obj 106 1288 inlet;
#X obj 265 1197 inlet;
#X obj 358 1172 inlet;
#X obj 147 1451 outlet~;
#X obj 387 1059 inlet;
#X connect 2 0 5 0;
#X connect 3 0 2 0;
#X connect 4 0 2 1;
#X connect 5 0 6 0;
#X connect 6 0 8 0;
#X connect 7 0 6 1;
#X connect 8 0 9 0;
#X connect 9 0 10 0;
#X connect 10 0 11 0;
#X connect 11 0 12 0;
#X connect 12 0 13 0;
#X connect 12 1 14 0;
#X connect 12 2 15 0;
#X connect 12 3 13 0;
#X connect 12 3 14 0;
#X connect 12 4 13 0;
#X connect 12 4 15 0;
#X connect 12 5 14 0;
#X connect 12 5 15 0;
#X connect 12 6 13 0;
#X connect 12 6 14 0;
#X connect 12 6 15 0;
#X connect 13 0 19 0;
#X connect 14 0 19 0;
#X connect 15 0 19 0;
#X connect 16 0 13 1;
#X connect 17 0 14 1;
#X connect 18 0 15 1;
#X connect 19 0 27 0;
#X connect 20 0 1 0;
#X connect 21 0 4 0;
#X connect 23 0 3 0;
#X connect 24 0 16 0;
#X connect 25 0 17 0;
#X connect 26 0 18 0;
#X connect 28 0 20 0;
#X coords 0 2152 2 2150 0 0 0;
#X restore 452 877 pd drum;
#X obj 440 959 dac~;
#X obj 362 784 tgl 19 0 empty empty empty 0 -10 0 12 #fcfcfc #000000 #000000 0 1;
#X floatatom 449 783 5 0 0 0 - - - 0;
#X floatatom 498 784 5 0 1 0 - - - 0;
#X floatatom 402 783 5 0 1 0 - - - 0;
#X floatatom 544 784 5 0 1 0 - - - 0;
#X text 500 752 snare;
#X text 401 755 Kick;
#X text 558 752 hats;
#X text 452 754 BPM;
#N canvas -8 0 958 1076 drum 0;
#N canvas 0 50 450 250 (subpatch) 0;
#X array \$0-steps 16 float 3;
#A 0 0 2 3 4 5 6 0 1 2 3 4 5 6 0 1 2;
#X coords 0 6 16 0 200 140 1 0 0;
#X restore 404 870 graph;
#X obj 393 1124 array set \$0-steps;
#N canvas 1023 136 750 655 counter 0;
#X obj 228 92 inlet;
#X obj 322 93 inlet;
#X obj 228 130 tgl 19 0 empty empty empty 0 -10 0 12 #fcfcfc #000000 #000000 0 1;
#X floatatom 322 131 5 0 0 0 - - - 0;
#X text 365 128 BPM;
#X msg 322 162 tempo \$1 permin;
#X obj 228 162 t f b;
#X obj 229 202 metro 0.25 120 permin;
#X msg 261 236;
#X text 301 238 Reset;
#X obj 233 273 f;
#X obj 286 275 + 1;
#X obj 233 322 % 16;
#X obj 232 368 outlet;
#X connect 0 0 2 0;
#X connect 1 0 3 0;
#X connect 2 0 6 0;
#X connect 3 0 5 0;
#X connect 5 0 7 0;
#X connect 6 0 7 0;
#X connect 6 1 8 0;
#X connect 7 0 10 0;
#X connect 8 0 10 1;
#X connect 10 0 11 0;
#X connect 10 0 12 0;
#X connect 11 0 10 1;
#X connect 12 0 13 0;
#X restore 103 903 pd counter;
#X obj 103 864 tgl 19 0 empty empty empty 0 -10 0 12 #fcfcfc #000000 #000000 0 1;
#X floatatom 173 857 5 0 0 0 - - - 0;
#X obj 103 940 hradio 15 1 0 16 empty empty empty 0 -10 0 12 #ffffff #000000 #000000 0;
#X obj 103 993 array get \$0-steps;
#X msg 162 964 1;
#X floatatom 105 1030 5 0 0 0 - - - 0;
#X obj 106 1076 + 0.5;
#X obj 106 1121 int;
#X floatatom 104 1157 5 0 0 0 - - - 0;
#X obj 106 1195 select 0 1 2 3 4 5 6;
#N canvas -7 164 705 729 kick 0;
#X text 311 62 Kick;
#X obj 187 118 inlet;
#X obj 266 119 inlet;
#X obj 188 157 bng 19 250 50 0 empty empty empty 0 -10 0 12 #fcfcfc #000000 #000000;
#X obj 285 204 f;
#X msg 154 203 150 \, 50 \, 70 \, 0;
#X obj 189 264 vline~;
#X obj 188 300 osc~;
#X obj 194 344 *~;
#X obj 193 388 outlet~;
#X obj 266 321 vline~;
#X msg 268 275 \$1 1 0 \, 0 100 1;
#X connect 1 0 3 0;
#X connect 2 0 4 1;
#X connect 3 0 4 0;
#X connect 3 0 5 0;
#X connect 4 0 11 0;
#X connect 5 0 6 0;
#X connect 6 0 7 0;
#X connect 7 0 8 0;
#X connect 8 0 9 0;
#X connect 10 0 8 1;
#X connect 11 0 10 0;
#X restore 34 1331 pd kick;
#N canvas 1097 177 630 660 snare 0;
#X obj 124 63 noise~;
#X obj 125 101 lop~ 3000;
#X obj 128 137 hip~ 1000;
#X obj 220 174 osc~ 180;
#X obj 222 212 *~ 0.5;
#X obj 226 257 *~;
#X obj 227 301 outlet~;
#X obj 326 233 *~;
#X obj 321 200 vline~;
#X msg 323 170 \$1 1 0 \, 0 150 1;
#X obj 322 138 f;
#X obj 303 99 inlet;
#X obj 377 95 inlet;
#X connect 0 0 1 0;
#X connect 1 0 2 0;
#X connect 2 0 5 0;
#X connect 4 0 5 0;
#X connect 5 0 6 0;
#X connect 7 0 5 1;
#X connect 8 0 7 0;
#X connect 8 0 7 1;
#X connect 9 0 8 0;
#X connect 10 0 9 0;
#X connect 11 0 10 0;
#X connect 12 0 10 1;
#X restore 152 1279 pd snare;
#N canvas 1081 169 633 581 hats 0;
#X obj 236 49 inlet;
#X obj 318 51 inlet;
#X obj 237 83 bng 19 250 50 0 empty empty empty 0 -10 0 12 #fcfcfc #000000 #000000;
#X obj 260 113 f;
#X obj 261 147 t f b;
#X obj 296 188 random 10;
#X obj 296 228 / 20;
#X obj 298 273 + 0.7;
#X obj 267 318 *;
#X obj 63 325 noise~;
#X obj 57 358 hip~ 20000;
#X obj 56 386 hip~ 10000;
#X obj 90 427 *~;
#X msg 165 353 \$1 \, 0 40 1;
#X obj 164 386 vline~;
#X obj 89 466 outlet~;
#X connect 0 0 2 0;
#X connect 1 0 3 1;
#X connect 2 0 3 0;
#X connect 3 0 4 0;
#X connect 4 0 8 0;
#X connect 4 1 5 0;
#X connect 5 0 6 0;
#X connect 6 0 7 0;
#X connect 7 0 8 1;
#X connect 8 0 13 0;
#X connect 9 0 10 0;
#X connect 10 0 11 0;
#X connect 11 0 12 0;
#X connect 12 0 15 0;
#X connect 13 0 14 0;
#X connect 14 0 12 1;
#X restore 300 1256 pd hats;
#X floatatom 102 1322 5 0 1 0 - - - 0;
#X floatatom 220 1251 5 0 1 0 - - - 0;
#X floatatom 350 1216 5 0 1 0 - - - 0;
#X obj 151 1390 +~;
#X msg 390 1092;
#X obj 160 824 inlet;
#X obj 220 1337;
#X obj 79 815 inlet;
#X obj 106 1288 inlet;
#X obj 265 1197 inlet;
#X obj 358 1172 inlet;
#X obj 147 1451 outlet~;
#X obj 387 1059 inlet;
#X connect 2 0 5 0;
#X connect 3 0 2 0;
#X connect 4 0 2 1;
#X connect 5 0 6 0;
#X connect 6 0 8 0;
#X connect 7 0 6 1;
#X connect 8 0 9 0;
#X connect 9 0 10 0;
#X connect 10 0 11 0;
#X connect 11 0 12 0;
#X connect 12 0 13 0;
#X connect 12 1 14 0;
#X connect 12 2 15 0;
#X connect 12 3 13 0;
#X connect 12 3 14 0;
#X connect 12 4 13 0;
#X connect 12 4 15 0;
#X connect 12 5 14 0;
#X connect 12 5 15 0;
#X connect 12 6 13 0;
#X connect 12 6 14 0;
#X connect 12 6 15 0;
#X connect 13 0 19 0;
#X connect 14 0 19 0;
#X connect 15 0 19 0;
#X connect 16 0 13 1;
#X connect 17 0 14 1;
#X connect 18 0 15 1;
#X connect 19 0 27 0;
#X connect 20 0 1 0;
#X connect 21 0 4 0;
#X connect 23 0 3 0;
#X connect 24 0 16 0;
#X connect 25 0 17 0;
#X connect 26 0 18 0;
#X connect 28 0 20 0;
#X coords 0 2152 2 2150 0 0 0;
#X restore 1016 338 pd drum;
#X obj 1004 420 dac~;
#X obj 927 241 tgl 19 0 empty empty empty 0 -10 0 12 #fcfcfc #000000 #000000 0 1;
#X floatatom 1013 244 5 0 0 0 - - - 0;
#X floatatom 1062 245 5 0 1 0 - - - 0;
#X floatatom 966 244 5 0 1 0 - - - 0;
#X floatatom 1108 245 5 0 1 0 - - - 0;
#X text 1064 213 snare;
#X text 965 216 Kick;
#X text 1122 213 hats;
#X text 1016 215 BPM;
#N canvas -8 0 958 1076 drum 0;
#N canvas 0 50 450 250 (subpatch) 0;
#X array \$0-steps 16 float 3;
#A 0 0 2 3 4 5 6 0 1 2 3 4 5 6 0 1 2;
#X coords 0 6 16 0 200 140 1 0 0;
#X restore 404 870 graph;
#X obj 393 1124 array set \$0-steps;
#N canvas 1023 136 750 655 counter 0;
#X obj 228 92 inlet;
#X obj 322 93 inlet;
#X obj 228 130 tgl 19 0 empty empty empty 0 -10 0 12 #fcfcfc #000000 #000000 0 1;
#X floatatom 322 131 5 0 0 0 - - - 0;
#X text 365 128 BPM;
#X msg 322 162 tempo \$1 permin;
#X obj 228 162 t f b;
#X obj 229 202 metro 0.25 120 permin;
#X msg 261 236;
#X text 301 238 Reset;
#X obj 233 273 f;
#X obj 286 275 + 1;
#X obj 233 322 % 16;
#X obj 232 368 outlet;
#X connect 0 0 2 0;
#X connect 1 0 3 0;
#X connect 2 0 6 0;
#X connect 3 0 5 0;
#X connect 5 0 7 0;
#X connect 6 0 7 0;
#X connect 6 1 8 0;
#X connect 7 0 10 0;
#X connect 8 0 10 1;
#X connect 10 0 11 0;
#X connect 10 0 12 0;
#X connect 11 0 10 1;
#X connect 12 0 13 0;
#X restore 103 903 pd counter;
#X obj 103 864 tgl 19 0 empty empty empty 0 -10 0 12 #fcfcfc #000000 #000000 0 1;
#X floatatom 173 857 5 0 0 0 - - - 0;
#X obj 103 940 hradio 15 1 0 16 empty empty empty 0 -10 0 12 #ffffff #000000 #000000 0;
#X obj 103 993 array get \$0-steps;
#X msg 162 964 1;
#X floatatom 105 1030 5 0 0 0 - - - 0;
#X obj 106 1076 + 0.5;
#X obj 106 1121 int;
#X floatatom 104 1157 5 0 0 0 - - - 0;
#X obj 106 1195 select 0 1 2 3 4 5 6;
#N canvas -7 164 705 729 kick 0;
#X text 311 62 Kick;
#X obj 187 118 inlet;
#X obj 266 119 inlet;
#X obj 188 157 bng 19 250 50 0 empty empty empty 0 -10 0 12 #fcfcfc #000000 #000000;
#X obj 285 204 f;
#X msg 154 203 150 \, 50 \, 70 \, 0;
#X obj 189 264 vline~;
#X obj 188 300 osc~;
#X obj 194 344 *~;
#X obj 193 388 outlet~;
#X obj 266 321 vline~;
#X msg 268 275 \$1 1 0 \, 0 100 1;
#X connect 1 0 3 0;
#X connect 2 0 4 1;
#X connect 3 0 4 0;
#X connect 3 0 5 0;
#X connect 4 0 11 0;
#X connect 5 0 6 0;
#X connect 6 0 7 0;
#X connect 7 0 8 0;
#X connect 8 0 9 0;
#X connect 10 0 8 1;
#X connect 11 0 10 0;
#X restore 34 1331 pd kick;
#N canvas 1097 177 630 660 snare 0;
#X obj 124 63 noise~;
#X obj 125 101 lop~ 3000;
#X obj 128 137 hip~ 1000;
#X obj 220 174 osc~ 180;
#X obj 222 212 *~ 0.5;
#X obj 226 257 *~;
#X obj 227 301 outlet~;
#X obj 326 233 *~;
#X obj 321 200 vline~;
#X msg 323 170 \$1 1 0 \, 0 150 1;
#X obj 322 138 f;
#X obj 303 99 inlet;
#X obj 377 95 inlet;
#X connect 0 0 1 0;
#X connect 1 0 2 0;
#X connect 2 0 5 0;
#X connect 4 0 5 0;
#X connect 5 0 6 0;
#X connect 7 0 5 1;
#X connect 8 0 7 0;
#X connect 8 0 7 1;
#X connect 9 0 8 0;
#X connect 10 0 9 0;
#X connect 11 0 10 0;
#X connect 12 0 10 1;
#X restore 152 1279 pd snare;
#N canvas 1081 169 633 581 hats 0;
#X obj 236 49 inlet;
#X obj 318 51 inlet;
#X obj 237 83 bng 19 250 50 0 empty empty empty 0 -10 0 12 #fcfcfc #000000 #000000;
#X obj 260 113 f;
#X obj 261 147 t f b;
#X obj 296 188 random 10;
#X obj 296 228 / 20;
#X obj 298 273 + 0.7;
#X obj 267 318 *;
#X obj 63 325 noise~;
#X obj 57 358 hip~ 20000;
#X obj 56 386 hip~ 10000;
#X obj 90 427 *~;
#X msg 165 353 \$1 \, 0 40 1;
#X obj 164 386 vline~;
#X obj 89 466 outlet~;
#X connect 0 0 2 0;
#X connect 1 0 3 1;
#X connect 2 0 3 0;
#X connect 3 0 4 0;
#X connect 4 0 8 0;
#X connect 4 1 5 0;
#X connect 5 0 6 0;
#X connect 6 0 7 0;
#X connect 7 0 8 1;
#X connect 8 0 13 0;
#X connect 9 0 10 0;
#X connect 10 0 11 0;
#X connect 11 0 12 0;
#X connect 12 0 15 0;
#X connect 13 0 14 0;
#X connect 14 0 12 1;
#X restore 300 1256 pd hats;
#X floatatom 102 1322 5 0 1 0 - - - 0;
#X floatatom 220 1251 5 0 1 0 - - - 0;
#X floatatom 350 1216 5 0 1 0 - - - 0;
#X obj 151 1390 +~;
#X msg 390 1092;
#X obj 160 824 inlet;
#X obj 220 1337;
#X obj 79 815 inlet;
#X obj 106 1288 inlet;
#X obj 265 1197 inlet;
#X obj 358 1172 inlet;
#X obj 147 1451 outlet~;
#X obj 387 1059 inlet;
#X connect 2 0 5 0;
#X connect 3 0 2 0;
#X connect 4 0 2 1;
#X connect 5 0 6 0;
#X connect 6 0 8 0;
#X connect 7 0 6 1;
#X connect 8 0 9 0;
#X connect 9 0 10 0;
#X connect 10 0 11 0;
#X connect 11 0 12 0;
#X connect 12 0 13 0;
#X connect 12 1 14 0;
#X connect 12 2 15 0;
#X connect 12 3 13 0;
#X connect 12 3 14 0;
#X connect 12 4 13 0;
#X connect 12 4 15 0;
#X connect 12 5 14 0;
#X connect 12 5 15 0;
#X connect 12 6 13 0;
#X connect 12 6 14 0;
#X connect 12 6 15 0;
#X connect 13 0 19 0;
#X connect 14 0 19 0;
#X connect 15 0 19 0;
#X connect 16 0 13 1;
#X connect 17 0 14 1;
#X connect 18 0 15 1;
#X connect 19 0 27 0;
#X connect 20 0 1 0;
#X connect 21 0 4 0;
#X connect 23 0 3 0;
#X connect 24 0 16 0;
#X connect 25 0 17 0;
#X connect 26 0 18 0;
#X connect 28 0 20 0;
#X coords 0 2152 2 2150 0 0 0;
#X restore 1013 634 pd drum;
#X obj 1001 716 dac~;
#X obj 923 541 tgl 19 0 empty empty empty 0 -10 0 12 #fcfcfc #000000 #000000 0 1;
#X floatatom 1010 540 5 0 0 0 - - - 0;
#X floatatom 1059 541 5 0 1 0 - - - 0;
#X floatatom 963 540 5 0 1 0 - - - 0;
#X floatatom 1105 541 5 0 1 0 - - - 0;
#X text 1061 509 snare;
#X text 962 512 Kick;
#X text 1119 509 hats;
#X text 1013 511 BPM;
#N canvas -8 0 958 1076 drum 0;
#N canvas 0 50 450 250 (subpatch) 0;
#X array \$0-steps 16 float 3;
#A 0 0 2 3 4 5 6 0 1 2 3 4 5 6 0 1 2;
#X coords 0 6 16 0 200 140 1 0 0;
#X restore 404 870 graph;
#X obj 393 1124 array set \$0-steps;
#N canvas 1023 136 750 655 counter 0;
#X obj 228 92 inlet;
#X obj 322 93 inlet;
#X obj 228 130 tgl 19 0 empty empty empty 0 -10 0 12 #fcfcfc #000000 #000000 0 1;
#X floatatom 322 131 5 0 0 0 - - - 0;
#X text 365 128 BPM;
#X msg 322 162 tempo \$1 permin;
#X obj 228 162 t f b;
#X obj 229 202 metro 0.25 120 permin;
#X msg 261 236;
#X text 301 238 Reset;
#X obj 233 273 f;
#X obj 286 275 + 1;
#X obj 233 322 % 16;
#X obj 232 368 outlet;
#X connect 0 0 2 0;
#X connect 1 0 3 0;
#X connect 2 0 6 0;
#X connect 3 0 5 0;
#X connect 5 0 7 0;
#X connect 6 0 7 0;
#X connect 6 1 8 0;
#X connect 7 0 10 0;
#X connect 8 0 10 1;
#X connect 10 0 11 0;
#X connect 10 0 12 0;
#X connect 11 0 10 1;
#X connect 12 0 13 0;
#X restore 103 903 pd counter;
#X obj 103 864 tgl 19 0 empty empty empty 0 -10 0 12 #fcfcfc #000000 #000000 0 1;
#X floatatom 173 857 5 0 0 0 - - - 0;
#X obj 103 940 hradio 15 1 0 16 empty empty empty 0 -10 0 12 #ffffff #000000 #000000 0;
#X obj 103 993 array get \$0-steps;
#X msg 162 964 1;
#X floatatom 105 1030 5 0 0 0 - - - 0;
#X obj 106 1076 + 0.5;
#X obj 106 1121 int;
#X floatatom 104 1157 5 0 0 0 - - - 0;
#X obj 106 1195 select 0 1 2 3 4 5 6;
#N canvas -7 164 705 729 kick 0;
#X text 311 62 Kick;
#X obj 187 118 inlet;
#X obj 266 119 inlet;
#X obj 188 157 bng 19 250 50 0 empty empty empty 0 -10 0 12 #fcfcfc #000000 #000000;
#X obj 285 204 f;
#X msg 154 203 150 \, 50 \, 70 \, 0;
#X obj 189 264 vline~;
#X obj 188 300 osc~;
#X obj 194 344 *~;
#X obj 193 388 outlet~;
#X obj 266 321 vline~;
#X msg 268 275 \$1 1 0 \, 0 100 1;
#X connect 1 0 3 0;
#X connect 2 0 4 1;
#X connect 3 0 4 0;
#X connect 3 0 5 0;
#X connect 4 0 11 0;
#X connect 5 0 6 0;
#X connect 6 0 7 0;
#X connect 7 0 8 0;
#X connect 8 0 9 0;
#X connect 10 0 8 1;
#X connect 11 0 10 0;
#X restore 34 1331 pd kick;
#N canvas 1097 177 630 660 snare 0;
#X obj 124 63 noise~;
#X obj 125 101 lop~ 3000;
#X obj 128 137 hip~ 1000;
#X obj 220 174 osc~ 180;
#X obj 222 212 *~ 0.5;
#X obj 226 257 *~;
#X obj 227 301 outlet~;
#X obj 326 233 *~;
#X obj 321 200 vline~;
#X msg 323 170 \$1 1 0 \, 0 150 1;
#X obj 322 138 f;
#X obj 303 99 inlet;
#X obj 377 95 inlet;
#X connect 0 0 1 0;
#X connect 1 0 2 0;
#X connect 2 0 5 0;
#X connect 4 0 5 0;
#X connect 5 0 6 0;
#X connect 7 0 5 1;
#X connect 8 0 7 0;
#X connect 8 0 7 1;
#X connect 9 0 8 0;
#X connect 10 0 9 0;
#X connect 11 0 10 0;
#X connect 12 0 10 1;
#X restore 152 1279 pd snare;
#N canvas 1081 169 633 581 hats 0;
#X obj 236 49 inlet;
#X obj 318 51 inlet;
#X obj 237 83 bng 19 250 50 0 empty empty empty 0 -10 0 12 #fcfcfc #000000 #000000;
#X obj 260 113 f;
#X obj 261 147 t f b;
#X obj 296 188 random 10;
#X obj 296 228 / 20;
#X obj 298 273 + 0.7;
#X obj 267 318 *;
#X obj 63 325 noise~;
#X obj 57 358 hip~ 20000;
#X obj 56 386 hip~ 10000;
#X obj 90 427 *~;
#X msg 165 353 \$1 \, 0 40 1;
#X obj 164 386 vline~;
#X obj 89 466 outlet~;
#X connect 0 0 2 0;
#X connect 1 0 3 1;
#X connect 2 0 3 0;
#X connect 3 0 4 0;
#X connect 4 0 8 0;
#X connect 4 1 5 0;
#X connect 5 0 6 0;
#X connect 6 0 7 0;
#X connect 7 0 8 1;
#X connect 8 0 13 0;
#X connect 9 0 10 0;
#X connect 10 0 11 0;
#X connect 11 0 12 0;
#X connect 12 0 15 0;
#X connect 13 0 14 0;
#X connect 14 0 12 1;
#X restore 300 1256 pd hats;
#X floatatom 102 1322 5 0 1 0 - - - 0;
#X floatatom 220 1251 5 0 1 0 - - - 0;
#X floatatom 350 1216 5 0 1 0 - - - 0;
#X obj 151 1390 +~;
#X msg 390 1092;
#X obj 160 824 inlet;
#X obj 220 1337;
#X obj 79 815 inlet;
#X obj 106 1288 inlet;
#X obj 265 1197 inlet;
#X obj 358 1172 inlet;
#X obj 147 1451 outlet~;
#X obj 387 1059 inlet;
#X connect 2 0 5 0;
#X connect 3 0 2 0;
#X connect 4 0 2 1;
#X connect 5 0 6 0;
#X connect 6 0 8 0;
#X connect 7 0 6 1;
#X connect 8 0 9 0;
#X connect 9 0 10 0;
#X connect 10 0 11 0;
#X connect 11 0 12 0;
#X connect 12 0 13 0;
#X connect 12 1 14 0;
#X connect 12 2 15 0;
#X connect 12 3 13 0;
#X connect 12 3 14 0;
#X connect 12 4 13 0;
#X connect 12 4 15 0;
#X connect 12 5 14 0;
#X connect 12 5 15 0;
#X connect 12 6 13 0;
#X connect 12 6 14 0;
#X connect 12 6 15 0;
#X connect 13 0 19 0;
#X connect 14 0 19 0;
#X connect 15 0 19 0;
#X connect 16 0 13 1;
#X connect 17 0 14 1;
#X connect 18 0 15 1;
#X connect 19 0 27 0;
#X connect 20 0 1 0;
#X connect 21 0 4 0;
#X connect 23 0 3 0;
#X connect 24 0 16 0;
#X connect 25 0 17 0;
#X connect 26 0 18 0;
#X connect 28 0 20 0;
#X coords 0 2152 2 2150 0 0 0;
#X restore 1004 881 pd drum;
#X obj 992 963 dac~;
#X obj 914 788 tgl 19 0 empty empty empty 0 -10 0 12 #fcfcfc #000000 #000000 0 1;
#X floatatom 1001 787 5 0 0 0 - - - 0;
#X floatatom 1050 788 5 0 1 0 - - - 0;
#X floatatom 954 787 5 0 1 0 - - - 0;
#X floatatom 1096 788 5 0 1 0 - - - 0;
#X text 1052 756 snare;
#X text 953 759 Kick;
#X text 1110 756 hats;
#X text 1004 758 BPM;
#N canvas -8 0 958 1076 drum 0;
#N canvas 0 50 450 250 (subpatch) 0;
#X array \$0-steps 16 float 3;
#A 0 0 2 3 4 5 6 0 1 2 3 4 5 6 0 1 2;
#X coords 0 6 16 0 200 140 1 0 0;
#X restore 404 870 graph;
#X obj 393 1124 array set \$0-steps;
#N canvas 1023 136 750 655 counter 0;
#X obj 228 92 inlet;
#X obj 322 93 inlet;
#X obj 228 130 tgl 19 0 empty empty empty 0 -10 0 12 #fcfcfc #000000 #000000 0 1;
#X floatatom 322 131 5 0 0 0 - - - 0;
#X text 365 128 BPM;
#X msg 322 162 tempo \$1 permin;
#X obj 228 162 t f b;
#X obj 229 202 metro 0.25 120 permin;
#X msg 261 236;
#X text 301 238 Reset;
#X obj 233 273 f;
#X obj 286 275 + 1;
#X obj 233 322 % 16;
#X obj 232 368 outlet;
#X connect 0 0 2 0;
#X connect 1 0 3 0;
#X connect 2 0 6 0;
#X connect 3 0 5 0;
#X connect 5 0 7 0;
#X connect 6 0 7 0;
#X connect 6 1 8 0;
#X connect 7 0 10 0;
#X connect 8 0 10 1;
#X connect 10 0 11 0;
#X connect 10 0 12 0;
#X connect 11 0 10 1;
#X connect 12 0 13 0;
#X restore 103 903 pd counter;
#X obj 103 864 tgl 19 0 empty empty empty 0 -10 0 12 #fcfcfc #000000 #000000 0 1;
#X floatatom 173 857 5 0 0 0 - - - 0;
#X obj 103 940 hradio 15 1 0 16 empty empty empty 0 -10 0 12 #ffffff #000000 #000000 0;
#X obj 103 993 array get \$0-steps;
#X msg 162 964 1;
#X floatatom 105 1030 5 0 0 0 - - - 0;
#X obj 106 1076 + 0.5;
#X obj 106 1121 int;
#X floatatom 104 1157 5 0 0 0 - - - 0;
#X obj 106 1195 select 0 1 2 3 4 5 6;
#N canvas -7 164 705 729 kick 0;
#X text 311 62 Kick;
#X obj 187 118 inlet;
#X obj 266 119 inlet;
#X obj 188 157 bng 19 250 50 0 empty empty empty 0 -10 0 12 #fcfcfc #000000 #000000;
#X obj 285 204 f;
#X msg 154 203 150 \, 50 \, 70 \, 0;
#X obj 189 264 vline~;
#X obj 188 300 osc~;
#X obj 194 344 *~;
#X obj 193 388 outlet~;
#X obj 266 321 vline~;
#X msg 268 275 \$1 1 0 \, 0 100 1;
#X connect 1 0 3 0;
#X connect 2 0 4 1;
#X connect 3 0 4 0;
#X connect 3 0 5 0;
#X connect 4 0 11 0;
#X connect 5 0 6 0;
#X connect 6 0 7 0;
#X connect 7 0 8 0;
#X connect 8 0 9 0;
#X connect 10 0 8 1;
#X connect 11 0 10 0;
#X restore 34 1331 pd kick;
#N canvas 1097 177 630 660 snare 0;
#X obj 124 63 noise~;
#X obj 125 101 lop~ 3000;
#X obj 128 137 hip~ 1000;
#X obj 220 174 osc~ 180;
#X obj 222 212 *~ 0.5;
#X obj 226 257 *~;
#X obj 227 301 outlet~;
#X obj 326 233 *~;
#X obj 321 200 vline~;
#X msg 323 170 \$1 1 0 \, 0 150 1;
#X obj 322 138 f;
#X obj 303 99 inlet;
#X obj 377 95 inlet;
#X connect 0 0 1 0;
#X connect 1 0 2 0;
#X connect 2 0 5 0;
#X connect 4 0 5 0;
#X connect 5 0 6 0;
#X connect 7 0 5 1;
#X connect 8 0 7 0;
#X connect 8 0 7 1;
#X connect 9 0 8 0;
#X connect 10 0 9 0;
#X connect 11 0 10 0;
#X connect 12 0 10 1;
#X restore 152 1279 pd snare;
#N canvas 1081 169 633 581 hats 0;
#X obj 236 49 inlet;
#X obj 318 51 inlet;
#X obj 237 83 bng 19 250 50 0 empty empty empty 0 -10 0 12 #fcfcfc #000000 #000000;
#X obj 260 113 f;
#X obj 261 147 t f b;
#X obj 296 188 random 10;
#X obj 296 228 / 20;
#X obj 298 273 + 0.7;
#X obj 267 318 *;
#X obj 63 325 noise~;
#X obj 57 358 hip~ 20000;
#X obj 56 386 hip~ 10000;
#X obj 90 427 *~;
#X msg 165 353 \$1 \, 0 40 1;
#X obj 164 386 vline~;
#X obj 89 466 outlet~;
#X connect 0 0 2 0;
#X connect 1 0 3 1;
#X connect 2 0 3 0;
#X connect 3 0 4 0;
#X connect 4 0 8 0;
#X connect 4 1 5 0;
#X connect 5 0 6 0;
#X connect 6 0 7 0;
#X connect 7 0 8 1;
#X connect 8 0 13 0;
#X connect 9 0 10 0;
#X connect 10 0 11 0;
#X connect 11 0 12 0;
#X connect 12 0 15 0;
#X connect 13 0 14 0;
#X connect 14 0 12 1;
#X restore 300 1256 pd hats;
#X floatatom 102 1322 5 0 1 0 - - - 0;
#X floatatom 220 1251 5 0 1 0 - - - 0;
#X floatatom 350 1216 5 0 1 0 - - - 0;
#X obj 151 1390 +~;
#X msg 390 1092;
#X obj 160 824 inlet;
#X obj 220 1337;
#X obj 79 815 inlet;
#X obj 106 1288 inlet;
#X obj 265 1197 inlet;
#X obj 358 1172 inlet;
#X obj 147 1451 outlet~;
#X obj 387 1059 inlet;
#X connect 2 0 5 0;
#X connect 3 0 2 0;
#X connect 4 0 2 1;
#X connect 5 0 6 0;
#X connect 6 0 8 0;
#X connect 7 0 6 1;
#X connect 8 0 9 0;
#X connect 9 0 10 0;
#X connect 10 0 11 0;
#X connect 11 0 12 0;
#X connect 12 0 13 0;
#X connect 12 1 14 0;
#X connect 12 2 15 0;
#X connect 12 3 13 0;
#X connect 12 3 14 0;
#X connect 12 4 13 0;
#X connect 12 4 15 0;
#X connect 12 5 14 0;
#X connect 12 5 15 0;
#X connect 12 6 13 0;
#X connect 12 6 14 0;
#X connect 12 6 15 0;
#X connect 13 0 19 0;
#X connect 14 0 19 0;
#X connect 15 0 19 0;
#X connect 16 0 13 1;
#X connect 17 0 14 1;
#X connect 18 0 15 1;
#X connect 19 0 27 0;
#X connect 20 0 1 0;
#X connect 21 0 4 0;
#X connect 23 0 3 0;
#X connect 24 0 16 0;
#X connect 25 0 17 0;
#X connect 26 0 18 0;
#X connect 28 0 20 0;
#X coords 0 2152 2 2150 0 0 0;
#X restore 1601 344 pd drum;
#X obj 1589 426 dac~;
#X obj 1511 251 tgl 19 0 empty empty empty 0 -10 0 12 #fcfcfc #000000 #000000 0 1;
#X floatatom 1598 250 5 0 0 0 - - - 0;
#X floatatom 1647 251 5 0 1 0 - - - 0;
#X floatatom 1551 250 5 0 1 0 - - - 0;
#X floatatom 1693 251 5 0 1 0 - - - 0;
#X text 1649 219 snare;
#X text 1550 222 Kick;
#X text 1707 219 hats;
#X text 1601 221 BPM;
#N canvas -8 0 958 1076 drum 0;
#N canvas 0 50 450 250 (subpatch) 0;
#X array \$0-steps 16 float 3;
#A 0 0 2 3 4 5 6 0 1 2 3 4 5 6 0 1 2;
#X coords 0 6 16 0 200 140 1 0 0;
#X restore 404 870 graph;
#X obj 393 1124 array set \$0-steps;
#N canvas 1023 136 750 655 counter 0;
#X obj 228 92 inlet;
#X obj 322 93 inlet;
#X obj 228 130 tgl 19 0 empty empty empty 0 -10 0 12 #fcfcfc #000000 #000000 0 1;
#X floatatom 322 131 5 0 0 0 - - - 0;
#X text 365 128 BPM;
#X msg 322 162 tempo \$1 permin;
#X obj 228 162 t f b;
#X obj 229 202 metro 0.25 120 permin;
#X msg 261 236;
#X text 301 238 Reset;
#X obj 233 273 f;
#X obj 286 275 + 1;
#X obj 233 322 % 16;
#X obj 232 368 outlet;
#X connect 0 0 2 0;
#X connect 1 0 3 0;
#X connect 2 0 6 0;
#X connect 3 0 5 0;
#X connect 5 0 7 0;
#X connect 6 0 7 0;
#X connect 6 1 8 0;
#X connect 7 0 10 0;
#X connect 8 0 10 1;
#X connect 10 0 11 0;
#X connect 10 0 12 0;
#X connect 11 0 10 1;
#X connect 12 0 13 0;
#X restore 103 903 pd counter;
#X obj 103 864 tgl 19 0 empty empty empty 0 -10 0 12 #fcfcfc #000000 #000000 0 1;
#X floatatom 173 857 5 0 0 0 - - - 0;
#X obj 103 940 hradio 15 1 0 16 empty empty empty 0 -10 0 12 #ffffff #000000 #000000 0;
#X obj 103 993 array get \$0-steps;
#X msg 162 964 1;
#X floatatom 105 1030 5 0 0 0 - - - 0;
#X obj 106 1076 + 0.5;
#X obj 106 1121 int;
#X floatatom 104 1157 5 0 0 0 - - - 0;
#X obj 106 1195 select 0 1 2 3 4 5 6;
#N canvas -7 164 705 729 kick 0;
#X text 311 62 Kick;
#X obj 187 118 inlet;
#X obj 266 119 inlet;
#X obj 188 157 bng 19 250 50 0 empty empty empty 0 -10 0 12 #fcfcfc #000000 #000000;
#X obj 285 204 f;
#X msg 154 203 150 \, 50 \, 70 \, 0;
#X obj 189 264 vline~;
#X obj 188 300 osc~;
#X obj 194 344 *~;
#X obj 193 388 outlet~;
#X obj 266 321 vline~;
#X msg 268 275 \$1 1 0 \, 0 100 1;
#X connect 1 0 3 0;
#X connect 2 0 4 1;
#X connect 3 0 4 0;
#X connect 3 0 5 0;
#X connect 4 0 11 0;
#X connect 5 0 6 0;
#X connect 6 0 7 0;
#X connect 7 0 8 0;
#X connect 8 0 9 0;
#X connect 10 0 8 1;
#X connect 11 0 10 0;
#X restore 34 1331 pd kick;
#N canvas 1097 177 630 660 snare 0;
#X obj 124 63 noise~;
#X obj 125 101 lop~ 3000;
#X obj 128 137 hip~ 1000;
#X obj 220 174 osc~ 180;
#X obj 222 212 *~ 0.5;
#X obj 226 257 *~;
#X obj 227 301 outlet~;
#X obj 326 233 *~;
#X obj 321 200 vline~;
#X msg 323 170 \$1 1 0 \, 0 150 1;
#X obj 322 138 f;
#X obj 303 99 inlet;
#X obj 377 95 inlet;
#X connect 0 0 1 0;
#X connect 1 0 2 0;
#X connect 2 0 5 0;
#X connect 4 0 5 0;
#X connect 5 0 6 0;
#X connect 7 0 5 1;
#X connect 8 0 7 0;
#X connect 8 0 7 1;
#X connect 9 0 8 0;
#X connect 10 0 9 0;
#X connect 11 0 10 0;
#X connect 12 0 10 1;
#X restore 152 1279 pd snare;
#N canvas 1081 169 633 581 hats 0;
#X obj 236 49 inlet;
#X obj 318 51 inlet;
#X obj 237 83 bng 19 250 50 0 empty empty empty 0 -10 0 12 #fcfcfc #000000 #000000;
#X obj 260 113 f;
#X obj 261 147 t f b;
#X obj 296 188 random 10;
#X obj 296 228 / 20;
#X obj 298 273 + 0.7;
#X obj 267 318 *;
#X obj 63 325 noise~;
#X obj 57 358 hip~ 20000;
#X obj 56 386 hip~ 10000;
#X obj 90 427 *~;
#X msg 165 353 \$1 \, 0 40 1;
#X obj 164 386 vline~;
#X obj 89 466 outlet~;
#X connect 0 0 2 0;
#X connect 1 0 3 1;
#X connect 2 0 3 0;
#X connect 3 0 4 0;
#X connect 4 0 8 0;
#X connect 4 1 5 0;
#X connect 5 0 6 0;
#X connect 6 0 7 0;
#X connect 7 0 8 1;
#X connect 8 0 13 0;
#X connect 9 0 10 0;
#X connect 10 0 11 0;
#X connect 11 0 12 0;
#X connect 12 0 15 0;
#X connect 13 0 14 0;
#X connect 14 0 12 1;
#X restore 300 1256 pd hats;
#X floatatom 102 1322 5 0 1 0 - - - 0;
#X floatatom 220 1251 5 0 1 0 - - - 0;
#X floatatom 350 1216 5 0 1 0 - - - 0;
#X obj 151 1390 +~;
#X msg 390 1092;
#X obj 160 824 inlet;
#X obj 220 1337;
#X obj 79 815 inlet;
#X obj 106 1288 inlet;
#X obj 265 1197 inlet;
#X obj 358 1172 inlet;
#X obj 147 1451 outlet~;
#X obj 387 1059 inlet;
#X connect 2 0 5 0;
#X connect 3 0 2 0;
#X connect 4 0 2 1;
#X connect 5 0 6 0;
#X connect 6 0 8 0;
#X connect 7 0 6 1;
#X connect 8 0 9 0;
#X connect 9 0 10 0;
#X connect 10 0 11 0;
#X connect 11 0 12 0;
#X connect 12 0 13 0;
#X connect 12 1 14 0;
#X connect 12 2 15 0;
#X connect 12 3 13 0;
#X connect 12 3 14 0;
#X connect 12 4 13 0;
#X connect 12 4 15 0;
#X connect 12 5 14 0;
#X connect 12 5 15 0;
#X connect 12 6 13 0;
#X connect 12 6 14 0;
#X connect 12 6 15 0;
#X connect 13 0 19 0;
#X connect 14 0 19 0;
#X connect 15 0 19 0;
#X connect 16 0 13 1;
#X connect 17 0 14 1;
#X connect 18 0 15 1;
#X connect 19 0 27 0;
#X connect 20 0 1 0;
#X connect 21 0 4 0;
#X connect 23 0 3 0;
#X connect 24 0 16 0;
#X connect 25 0 17 0;
#X connect 26 0 18 0;
#X connect 28 0 20 0;
#X coords 0 2152 2 2150 0 0 0;
#X restore 1598 640 pd drum;
#X obj 1586 722 dac~;
#X obj 1508 547 tgl 19 0 empty empty empty 0 -10 0 12 #fcfcfc #000000 #000000 0 1;
#X floatatom 1595 546 5 0 0 0 - - - 0;
#X floatatom 1644 547 5 0 1 0 - - - 0;
#X floatatom 1548 546 5 0 1 0 - - - 0;
#X floatatom 1690 547 5 0 1 0 - - - 0;
#X text 1646 515 snare;
#X text 1547 518 Kick;
#X text 1704 515 hats;
#X text 1598 517 BPM;
#X msg 602 534 4 10 4 10 5 10 2 1 2 1 4 0 5 10 2 1;
#X msg 593 784 4 0 2 10 5 10 2 0 2 10 4 0 5 10 6 10;
#X msg 1159 244 4 10 2 10 5 10 2 2 2 10 4 10 5 0 2 2;
#X msg 1158 541 4 2 4 2 5 2 4 5 2 5 4 5 5 4 2 5;
#X msg 1155 786 0 2 2 10 3 10 2 2 0 2 2 10 3 10 2 10;
#X msg 1744 251 0 1 2 2 1 0 2 1 10 10 4 0 1 2 2 2 0 10 2 10;
#X msg 1745 547 4 2 2 2 5 2 2 2 4 2 2 2 5 2 4 2;
#X msg 75 57 listen 10000;
#X obj 75 96 netreceive -u -b;
#X obj 75 135 oscparse;
#X obj 74 179 list trim;
#X obj 72 225 route oscControl;
#X obj 95 288 symbol;
#X obj 77 357 s;
#X obj 906 37 r slider1;
#X obj 907 79 route slider1;
#X obj 1063 86 route slider2;
#X obj 1062 41 r slider2;
#X obj 1203 40 r slider3;
#X obj 1206 84 route slider3;
#X obj 342 140 r gridToggle1;
#X obj 352 169 route gridToggle1;
#X obj 310 448 r gridToggle2;
#X obj 328 477 route gridToggle2;
#X obj 288 695 r gridToggle3;
#X obj 310 722 route gridToggle3;
#X obj 852 173 r gridToggle4;
#X obj 853 198 route gridToggle4;
#X obj 870 458 r gridToggle5;
#X obj 872 485 route gridToggle5;
#X obj 841 687 r gridToggle6;
#X obj 843 723 route gridToggle6;
#X obj 1418 143 r gridToggle7;
#X obj 1425 181 route gridToggle7;
#X obj 1432 465 r gridToggle8;
#X obj 1437 499 route gridToggle8;
#X obj 1329 39 r slider4;
#X obj 1332 82 route slider4;
#X obj 1378 119 *;
#X msg 1508 74 100;
#X connect 3 0 4 0;
#X connect 3 0 4 1;
#X connect 5 0 3 0;
#X connect 6 0 3 2;
#X connect 7 0 3 3;
#X connect 8 0 3 1;
#X connect 9 0 3 4;
#X connect 10 0 3 5;
#X connect 15 0 16 0;
#X connect 15 0 16 1;
#X connect 17 0 15 0;
#X connect 18 0 15 2;
#X connect 19 0 15 3;
#X connect 20 0 15 1;
#X connect 21 0 15 4;
#X connect 26 0 27 0;
#X connect 26 0 27 1;
#X connect 28 0 26 0;
#X connect 29 0 26 2;
#X connect 30 0 26 3;
#X connect 31 0 26 1;
#X connect 32 0 26 4;
#X connect 37 0 38 0;
#X connect 37 0 38 1;
#X connect 39 0 37 0;
#X connect 40 0 37 2;
#X connect 41 0 37 3;
#X connect 42 0 37 1;
#X connect 43 0 37 4;
#X connect 48 0 49 0;
#X connect 48 0 49 1;
#X connect 50 0 48 0;
#X connect 51 0 48 2;
#X connect 52 0 48 3;
#X connect 53 0 48 1;
#X connect 54 0 48 4;
#X connect 59 0 60 0;
#X connect 59 0 60 1;
#X connect 61 0 59 0;
#X connect 62 0 59 2;
#X connect 63 0 59 3;
#X connect 64 0 59 1;
#X connect 65 0 59 4;
#X connect 70 0 71 0;
#X connect 70 0 71 1;
#X connect 72 0 70 0;
#X connect 73 0 70 2;
#X connect 74 0 70 3;
#X connect 75 0 70 1;
#X connect 76 0 70 4;
#X connect 81 0 82 0;
#X connect 81 0 82 1;
#X connect 83 0 81 0;
#X connect 84 0 81 2;
#X connect 85 0 81 3;
#X connect 86 0 81 1;
#X connect 87 0 81 4;
#X connect 92 0 15 5;
#X connect 93 0 26 5;
#X connect 94 0 37 5;
#X connect 95 0 48 5;
#X connect 96 0 59 5;
#X connect 97 0 70 5;
#X connect 98 0 81 5;
#X connect 99 0 100 0;
#X connect 100 0 101 0;
#X connect 101 0 102 0;
#X connect 102 0 103 0;
#X connect 103 0 104 0;
#X connect 103 0 105 0;
#X connect 104 0 105 1;
#X connect 106 0 107 0;
#X connect 107 0 8 0;
#X connect 107 0 20 0;
#X connect 107 0 31 0;
#X connect 107 0 42 0;
#X connect 107 0 53 0;
#X connect 107 0 64 0;
#X connect 107 0 75 0;
#X connect 107 0 86 0;
#X connect 108 0 7 0;
#X connect 108 0 19 0;
#X connect 108 0 30 0;
#X connect 108 0 41 0;
#X connect 108 0 52 0;
#X connect 108 0 63 0;
#X connect 108 0 74 0;
#X connect 108 0 85 0;
#X connect 109 0 108 0;
#X connect 110 0 111 0;
#X connect 111 0 9 0;
#X connect 111 0 21 0;
#X connect 111 0 32 0;
#X connect 111 0 43 0;
#X connect 111 0 54 0;
#X connect 111 0 65 0;
#X connect 111 0 76 0;
#X connect 111 0 87 0;
#X connect 112 0 113 0;
#X connect 113 0 5 0;
#X connect 114 0 115 0;
#X connect 115 0 17 0;
#X connect 116 0 117 0;
#X connect 117 0 28 0;
#X connect 118 0 119 0;
#X connect 119 0 39 0;
#X connect 120 0 121 0;
#X connect 121 0 50 0;
#X connect 122 0 123 0;
#X connect 123 0 61 0;
#X connect 124 0 125 0;
#X connect 125 0 72 0;
#X connect 126 0 127 0;
#X connect 127 0 83 0;
#X connect 128 0 129 0;
#X connect 129 0 130 0;
#X connect 130 0 40 0;
#X connect 130 0 6 0;
#X connect 130 0 18 0;
#X connect 130 0 29 0;
#X connect 130 0 51 0;
#X connect 130 0 62 0;
#X connect 130 0 73 0;
#X connect 130 0 84 0;
#X connect 131 0 130 1;
